<svg width="40" height="41" viewBox="0 0 40 41" fill="none" xmlns="http://www.w3.org/2000/svg">
<rect y="0.789474" width="40" height="39.9298" rx="3" fill="#E0FEED"/>
<path d="M25.7407 17.0939C25.7407 15.4172 25.0774 13.8092 23.8966 12.6236C22.7158 11.438 21.1143 10.7719 19.4444 10.7719C17.7746 10.7719 16.1731 11.438 14.9923 12.6236C13.8115 13.8092 13.1481 15.4172 13.1481 17.0939C13.1481 24.4694 10 26.5767 10 26.5767H28.8889C28.8889 26.5767 25.7407 24.4694 25.7407 17.0939Z" stroke="#68CAA0" stroke-width="2" stroke-linecap="round" stroke-linejoin="round"/>
<path d="M21.2593 30.7914C21.0748 31.1107 20.81 31.3758 20.4914 31.56C20.1728 31.7443 19.8115 31.8413 19.4438 31.8413C19.0762 31.8413 18.7149 31.7443 18.3963 31.56C18.0777 31.3758 17.8129 31.1107 17.6284 30.7914" stroke="#68CAA0" stroke-width="2" stroke-linecap="round" stroke-linejoin="round"/>
</svg>
