<svg width="15" height="12" viewBox="0 0 15 12" fill="none" xmlns="http://www.w3.org/2000/svg">
<path d="M0.130747 2.26839L2.32165 0.125478C2.4928 -0.0418526 2.77041 -0.0417991 2.94145 0.125478L5.13227 2.26839C5.40811 2.53812 5.21168 3.00001 4.82236 3.00001H3.5081V11.5714C3.5081 11.8081 3.3119 12 3.06983 12H2.1933C1.95123 12 1.75503 11.8081 1.75503 11.5714V3.00001H0.440658C0.0505714 3.00001 -0.144513 2.53758 0.130747 2.26839V2.26839ZM6.57599 1.7143H13.5883C13.8304 1.7143 14.0266 1.52243 14.0266 1.28573V0.428584C14.0266 0.191879 13.8304 1.34454e-05 13.5883 1.34454e-05H6.57599C6.33392 1.34454e-05 6.13772 0.191879 6.13772 0.428584V1.28573C6.13772 1.52243 6.33392 1.7143 6.57599 1.7143ZM6.13772 4.71429V3.85715C6.13772 3.62045 6.33392 3.42858 6.57599 3.42858H11.8352C12.0773 3.42858 12.2735 3.62045 12.2735 3.85715V4.71429C12.2735 4.951 12.0773 5.14286 11.8352 5.14286H6.57599C6.33392 5.14286 6.13772 4.951 6.13772 4.71429ZM6.13772 11.5714V10.7143C6.13772 10.4776 6.33392 10.2857 6.57599 10.2857H8.32906C8.57112 10.2857 8.76733 10.4776 8.76733 10.7143V11.5714C8.76733 11.8081 8.57112 12 8.32906 12H6.57599C6.33392 12 6.13772 11.8081 6.13772 11.5714ZM6.13772 8.14286V7.28572C6.13772 7.04901 6.33392 6.85715 6.57599 6.85715H10.0821C10.3242 6.85715 10.5204 7.04901 10.5204 7.28572V8.14286C10.5204 8.37957 10.3242 8.57143 10.0821 8.57143H6.57599C6.33392 8.57143 6.13772 8.37957 6.13772 8.14286Z" fill="#A6A4AE"/>
</svg>
