<svg width="40" height="41" viewBox="0 0 40 41" fill="none" xmlns="http://www.w3.org/2000/svg">
<rect y="0.649124" width="40" height="39.9298" rx="3" fill="#FFF4CF"/>
<path d="M25.7407 16.9535C25.7407 15.2768 25.0774 13.6688 23.8966 12.4832C22.7158 11.2976 21.1143 10.6316 19.4444 10.6316C17.7746 10.6316 16.1731 11.2976 14.9923 12.4832C13.8115 13.6688 13.1481 15.2768 13.1481 16.9535C13.1481 24.3291 10 26.4364 10 26.4364H28.8889C28.8889 26.4364 25.7407 24.3291 25.7407 16.9535Z" stroke="#FE9800" stroke-width="2" stroke-linecap="round" stroke-linejoin="round"/>
<path d="M21.2593 30.651C21.0748 30.9704 20.81 31.2354 20.4914 31.4197C20.1728 31.604 19.8115 31.7009 19.4438 31.7009C19.0762 31.7009 18.7149 31.604 18.3963 31.4197C18.0777 31.2354 17.8129 30.9704 17.6284 30.651" stroke="#FE9800" stroke-width="2" stroke-linecap="round" stroke-linejoin="round"/>
</svg>
