<svg width="40" height="41" viewBox="0 0 40 41" fill="none" xmlns="http://www.w3.org/2000/svg">
<rect y="0.508759" width="40" height="39.9298" rx="3" fill="#FFE7E3"/>
<path d="M25.7407 16.8132C25.7407 15.1365 25.0774 13.5285 23.8966 12.3429C22.7158 11.1573 21.1143 10.4912 19.4444 10.4912C17.7746 10.4912 16.1731 11.1573 14.9923 12.3429C13.8115 13.5285 13.1481 15.1365 13.1481 16.8132C13.1481 24.1887 10 26.296 10 26.296H28.8889C28.8889 26.296 25.7407 24.1887 25.7407 16.8132Z" stroke="#EA6367" stroke-width="2" stroke-linecap="round" stroke-linejoin="round"/>
<path d="M21.2593 30.5107C21.0748 30.83 20.81 31.0951 20.4914 31.2793C20.1728 31.4636 19.8115 31.5606 19.4438 31.5606C19.0762 31.5606 18.7149 31.4636 18.3963 31.2793C18.0777 31.0951 17.8129 30.83 17.6284 30.5107" stroke="#EA6367" stroke-width="2" stroke-linecap="round" stroke-linejoin="round"/>
</svg>
