<svg width="17" height="17" viewBox="0 0 17 17" fill="none" xmlns="http://www.w3.org/2000/svg">
<path d="M8.5 16C12.6421 16 16 12.6421 16 8.5C16 4.35786 12.6421 1 8.5 1C4.35786 1 1 4.35786 1 8.5C1 12.6421 4.35786 16 8.5 16Z" stroke="#A6A4AE" stroke-width="1.5" stroke-miterlimit="10" stroke-linecap="round" stroke-linejoin="round"/>
<path d="M8.49986 9.57142C9.97919 9.57142 11.1784 8.37218 11.1784 6.89285C11.1784 5.41352 9.97919 4.21428 8.49986 4.21428C7.02053 4.21428 5.82129 5.41352 5.82129 6.89285C5.82129 8.37218 7.02053 9.57142 8.49986 9.57142Z" stroke="#A6A4AE" stroke-width="1.5" stroke-miterlimit="10" stroke-linecap="round" stroke-linejoin="round"/>
<path d="M2.82324 13.375C3.78753 11.1786 5.93038 9.62499 8.50181 9.62499C11.0732 9.62499 13.2697 11.1786 14.1804 13.375" stroke="#A6A4AE" stroke-width="1.5" stroke-miterlimit="10" stroke-linecap="round" stroke-linejoin="round"/>
</svg>
