<svg width="14" height="18" viewBox="0 0 14 18" fill="none" xmlns="http://www.w3.org/2000/svg">
<path d="M6.99779 18C6.03159 18 5.24834 17.1941 5.24834 16.2H8.74723C8.74723 17.1941 7.96398 18 6.99779 18ZM13.9956 15.3H0V13.5001L1.74945 12.6001V7.65012C1.70336 6.38034 1.98207 5.12036 2.55769 3.99616C3.13067 2.95353 4.11006 2.21317 5.24834 1.96218V0.000205057H8.43758C7.30078 1.30738 7.11105 3.21893 7.96759 4.73554C8.82412 6.25215 10.5322 7.02907 12.1989 6.66013C12.2295 6.98143 12.2444 7.31442 12.2444 7.65012V12.6001L13.9938 13.5001V15.3H13.9956ZM11.3714 5.40014C9.98034 5.39792 8.83266 4.27925 8.75536 2.85022C8.67805 1.4212 9.69799 0.178391 11.0802 0.0173534C12.4624 -0.143684 13.7266 0.833004 13.9619 2.24363C14.1971 3.65427 13.3216 5.00865 11.9662 5.33084C11.7711 5.37695 11.5716 5.4002 11.3714 5.40014Z" fill="url(#paint0_linear_846_11)"/>
<defs>
<linearGradient id="paint0_linear_846_11" x1="-5.21541e-08" y1="9.00001" x2="14" y2="9.00001" gradientUnits="userSpaceOnUse">
<stop stop-color="#FF500F"/>
<stop offset="1" stop-color="#FF8700"/>
</linearGradient>
</defs>
</svg>
