<svg width="14" height="18" viewBox="0 0 14 18" fill="none" xmlns="http://www.w3.org/2000/svg">
<path d="M7 18C6.0335 18 5.25 17.1941 5.25 16.2H8.75C8.75 17.1941 7.9665 18 7 18ZM14 15.3H0V13.5L1.75 12.6V7.65C1.75 4.5342 2.99338 2.5137 5.25 1.962V0H7.875C7.30446 0.777544 6.99713 1.72586 7 2.7C6.99997 2.92624 7.01635 3.15217 7.049 3.3759H7C5.93237 3.30478 4.90263 3.79589 4.26562 4.68C3.72098 5.5661 3.45375 6.60274 3.5 7.65V13.5H10.5V7.65C10.5 7.4601 10.4939 7.2774 10.4816 7.11C11.0604 7.23298 11.6573 7.23512 12.2369 7.1163C12.2465 7.3062 12.25 7.4871 12.25 7.6563V12.6L14 13.5V15.3ZM11.375 5.4C10.8463 5.40066 10.3298 5.23655 9.89363 4.9293C8.86268 4.20442 8.47095 2.83284 8.95692 1.64961C9.44289 0.466383 10.672 -0.200896 11.896 0.0540336C13.1199 0.308963 13.9999 1.41552 14 2.7C14 4.19117 12.8247 5.4 11.375 5.4Z" fill="#A6A4AE"/>
</svg>
