<svg width="698" height="312" viewBox="0 0 698 312" fill="none" xmlns="http://www.w3.org/2000/svg">
<path d="M85.328 309.084C84.808 309.084 84.3 309.016 83.804 308.88C83.308 308.744 82.912 308.572 82.616 308.364L83.192 307.224C83.48 307.416 83.824 307.572 84.224 307.692C84.632 307.804 85.032 307.86 85.424 307.86C86.32 307.86 86.768 307.624 86.768 307.152C86.768 306.928 86.652 306.772 86.42 306.684C86.196 306.596 85.832 306.512 85.328 306.432C84.8 306.352 84.368 306.26 84.032 306.156C83.704 306.052 83.416 305.872 83.168 305.616C82.928 305.352 82.808 304.988 82.808 304.524C82.808 303.916 83.06 303.432 83.564 303.072C84.076 302.704 84.764 302.52 85.628 302.52C86.068 302.52 86.508 302.572 86.948 302.676C87.388 302.772 87.748 302.904 88.028 303.072L87.452 304.212C86.908 303.892 86.296 303.732 85.616 303.732C85.176 303.732 84.84 303.8 84.608 303.936C84.384 304.064 84.272 304.236 84.272 304.452C84.272 304.692 84.392 304.864 84.632 304.968C84.88 305.064 85.26 305.156 85.772 305.244C86.284 305.324 86.704 305.416 87.032 305.52C87.36 305.624 87.64 305.8 87.872 306.048C88.112 306.296 88.232 306.648 88.232 307.104C88.232 307.704 87.972 308.184 87.452 308.544C86.932 308.904 86.224 309.084 85.328 309.084ZM95.5478 305.832C95.5478 305.936 95.5398 306.084 95.5238 306.276H90.4958C90.5838 306.748 90.8118 307.124 91.1798 307.404C91.5558 307.676 92.0198 307.812 92.5718 307.812C93.2758 307.812 93.8558 307.58 94.3118 307.116L95.1158 308.04C94.8278 308.384 94.4638 308.644 94.0238 308.82C93.5838 308.996 93.0878 309.084 92.5358 309.084C91.8318 309.084 91.2118 308.944 90.6758 308.664C90.1398 308.384 89.7238 307.996 89.4278 307.5C89.1398 306.996 88.9958 306.428 88.9958 305.796C88.9958 305.172 89.1358 304.612 89.4158 304.116C89.7038 303.612 90.0998 303.22 90.6038 302.94C91.1078 302.66 91.6758 302.52 92.3078 302.52C92.9318 302.52 93.4878 302.66 93.9758 302.94C94.4718 303.212 94.8558 303.6 95.1278 304.104C95.4078 304.6 95.5478 305.176 95.5478 305.832ZM92.3078 303.72C91.8278 303.72 91.4198 303.864 91.0838 304.152C90.7558 304.432 90.5558 304.808 90.4838 305.28H94.1198C94.0558 304.816 93.8598 304.44 93.5318 304.152C93.2038 303.864 92.7958 303.72 92.3078 303.72ZM103.349 302.592V308.028C103.349 310.284 102.197 311.412 99.8926 311.412C99.2766 311.412 98.6926 311.332 98.1406 311.172C97.5886 311.02 97.1326 310.796 96.7726 310.5L97.4446 309.372C97.7246 309.604 98.0766 309.788 98.5006 309.924C98.9326 310.068 99.3686 310.14 99.8086 310.14C100.513 310.14 101.029 309.98 101.357 309.66C101.685 309.34 101.849 308.852 101.849 308.196V307.86C101.593 308.14 101.281 308.352 100.913 308.496C100.545 308.64 100.141 308.712 99.7006 308.712C99.0926 308.712 98.5406 308.584 98.0446 308.328C97.5566 308.064 97.1686 307.696 96.8806 307.224C96.6006 306.752 96.4606 306.212 96.4606 305.604C96.4606 304.996 96.6006 304.46 96.8806 303.996C97.1686 303.524 97.5566 303.16 98.0446 302.904C98.5406 302.648 99.0926 302.52 99.7006 302.52C100.165 302.52 100.585 302.596 100.961 302.748C101.345 302.9 101.665 303.132 101.921 303.444V302.592H103.349ZM99.9286 307.44C100.497 307.44 100.961 307.272 101.321 306.936C101.689 306.592 101.873 306.148 101.873 305.604C101.873 305.068 101.689 304.632 101.321 304.296C100.961 303.96 100.497 303.792 99.9286 303.792C99.3526 303.792 98.8806 303.96 98.5126 304.296C98.1526 304.632 97.9726 305.068 97.9726 305.604C97.9726 306.148 98.1526 306.592 98.5126 306.936C98.8806 307.272 99.3526 307.44 99.9286 307.44ZM111.525 302.592V309H110.097V308.184C109.857 308.472 109.557 308.696 109.197 308.856C108.837 309.008 108.449 309.084 108.033 309.084C107.177 309.084 106.501 308.848 106.005 308.376C105.517 307.896 105.273 307.188 105.273 306.252V302.592H106.773V306.048C106.773 306.624 106.901 307.056 107.157 307.344C107.421 307.624 107.793 307.764 108.273 307.764C108.809 307.764 109.233 307.6 109.545 307.272C109.865 306.936 110.025 306.456 110.025 305.832V302.592H111.525ZM117.125 302.52C117.933 302.52 118.581 302.756 119.069 303.228C119.557 303.7 119.801 304.4 119.801 305.328V309H118.301V305.52C118.301 304.96 118.169 304.54 117.905 304.26C117.641 303.972 117.265 303.828 116.777 303.828C116.225 303.828 115.789 303.996 115.469 304.332C115.149 304.66 114.989 305.136 114.989 305.76V309H113.489V302.592H114.917V303.42C115.165 303.124 115.477 302.9 115.853 302.748C116.229 302.596 116.653 302.52 117.125 302.52ZM128.038 300.096V309H126.598V308.172C126.35 308.476 126.042 308.704 125.674 308.856C125.314 309.008 124.914 309.084 124.474 309.084C123.858 309.084 123.302 308.948 122.806 308.676C122.318 308.404 121.934 308.02 121.654 307.524C121.374 307.02 121.234 306.444 121.234 305.796C121.234 305.148 121.374 304.576 121.654 304.08C121.934 303.584 122.318 303.2 122.806 302.928C123.302 302.656 123.858 302.52 124.474 302.52C124.898 302.52 125.286 302.592 125.638 302.736C125.99 302.88 126.29 303.096 126.538 303.384V300.096H128.038ZM124.654 307.8C125.014 307.8 125.338 307.72 125.626 307.56C125.914 307.392 126.142 307.156 126.31 306.852C126.478 306.548 126.562 306.196 126.562 305.796C126.562 305.396 126.478 305.044 126.31 304.74C126.142 304.436 125.914 304.204 125.626 304.044C125.338 303.876 125.014 303.792 124.654 303.792C124.294 303.792 123.97 303.876 123.682 304.044C123.394 304.204 123.166 304.436 122.998 304.74C122.83 305.044 122.746 305.396 122.746 305.796C122.746 306.196 122.83 306.548 122.998 306.852C123.166 307.156 123.394 307.392 123.682 307.56C123.97 307.72 124.294 307.8 124.654 307.8ZM132.448 302.52C133.392 302.52 134.112 302.748 134.608 303.204C135.112 303.652 135.364 304.332 135.364 305.244V309H133.948V308.22C133.764 308.5 133.5 308.716 133.156 308.868C132.82 309.012 132.412 309.084 131.932 309.084C131.452 309.084 131.032 309.004 130.672 308.844C130.312 308.676 130.032 308.448 129.832 308.16C129.64 307.864 129.544 307.532 129.544 307.164C129.544 306.588 129.756 306.128 130.18 305.784C130.612 305.432 131.288 305.256 132.208 305.256H133.864V305.16C133.864 304.712 133.728 304.368 133.456 304.128C133.192 303.888 132.796 303.768 132.268 303.768C131.908 303.768 131.552 303.824 131.2 303.936C130.856 304.048 130.564 304.204 130.324 304.404L129.736 303.312C130.072 303.056 130.476 302.86 130.948 302.724C131.42 302.588 131.92 302.52 132.448 302.52ZM132.244 307.992C132.62 307.992 132.952 307.908 133.24 307.74C133.536 307.564 133.744 307.316 133.864 306.996V306.252H132.316C131.452 306.252 131.02 306.536 131.02 307.104C131.02 307.376 131.128 307.592 131.344 307.752C131.56 307.912 131.86 307.992 132.244 307.992Z" fill="#353535"/>
<path d="M3.432 189.705V198.105H1.872V191.013H0.096V189.705H3.432ZM8.60231 198.225C7.93031 198.225 7.33031 198.057 6.80231 197.721C6.27431 197.377 5.85831 196.881 5.55431 196.233C5.25031 195.577 5.09831 194.801 5.09831 193.905C5.09831 193.009 5.25031 192.237 5.55431 191.589C5.85831 190.933 6.27431 190.437 6.80231 190.101C7.33031 189.757 7.93031 189.585 8.60231 189.585C9.27431 189.585 9.87431 189.757 10.4023 190.101C10.9383 190.437 11.3583 190.933 11.6623 191.589C11.9663 192.237 12.1183 193.009 12.1183 193.905C12.1183 194.801 11.9663 195.577 11.6623 196.233C11.3583 196.881 10.9383 197.377 10.4023 197.721C9.87431 198.057 9.27431 198.225 8.60231 198.225ZM8.60231 196.869C9.20231 196.869 9.67431 196.621 10.0183 196.125C10.3703 195.629 10.5463 194.889 10.5463 193.905C10.5463 192.921 10.3703 192.181 10.0183 191.685C9.67431 191.189 9.20231 190.941 8.60231 190.941C8.01031 190.941 7.53831 191.189 7.18631 191.685C6.84231 192.181 6.67031 192.921 6.67031 193.905C6.67031 194.889 6.84231 195.629 7.18631 196.125C7.53831 196.621 8.01031 196.869 8.60231 196.869Z" fill="#353535"/>
<path d="M4.032 272.644C3.36 272.644 2.76 272.476 2.232 272.14C1.704 271.796 1.288 271.3 0.984 270.652C0.68 269.996 0.528 269.22 0.528 268.324C0.528 267.428 0.68 266.656 0.984 266.008C1.288 265.352 1.704 264.856 2.232 264.52C2.76 264.176 3.36 264.004 4.032 264.004C4.704 264.004 5.304 264.176 5.832 264.52C6.368 264.856 6.788 265.352 7.092 266.008C7.396 266.656 7.548 267.428 7.548 268.324C7.548 269.22 7.396 269.996 7.092 270.652C6.788 271.3 6.368 271.796 5.832 272.14C5.304 272.476 4.704 272.644 4.032 272.644ZM4.032 271.288C4.632 271.288 5.104 271.04 5.448 270.544C5.8 270.048 5.976 269.308 5.976 268.324C5.976 267.34 5.8 266.6 5.448 266.104C5.104 265.608 4.632 265.36 4.032 265.36C3.44 265.36 2.968 265.608 2.616 266.104C2.272 266.6 2.1 267.34 2.1 268.324C2.1 269.308 2.272 270.048 2.616 270.544C2.968 271.04 3.44 271.288 4.032 271.288Z" fill="#353535"/>
<path d="M6.612 114.277V115.597H0.42V114.553L3.756 111.385C4.132 111.025 4.384 110.713 4.512 110.449C4.648 110.177 4.716 109.909 4.716 109.645C4.716 109.253 4.584 108.953 4.32 108.745C4.056 108.537 3.668 108.433 3.156 108.433C2.3 108.433 1.644 108.725 1.188 109.309L0.096 108.469C0.424 108.029 0.864 107.689 1.416 107.449C1.976 107.201 2.6 107.077 3.288 107.077C4.2 107.077 4.928 107.293 5.472 107.725C6.016 108.157 6.288 108.745 6.288 109.489C6.288 109.945 6.192 110.373 6 110.773C5.808 111.173 5.44 111.629 4.896 112.141L2.652 114.277H6.612ZM10.9812 115.717C10.3092 115.717 9.70922 115.549 9.18122 115.213C8.65322 114.869 8.23722 114.373 7.93322 113.725C7.62922 113.069 7.47722 112.293 7.47722 111.397C7.47722 110.501 7.62922 109.729 7.93322 109.081C8.23722 108.425 8.65322 107.929 9.18122 107.593C9.70922 107.249 10.3092 107.077 10.9812 107.077C11.6532 107.077 12.2532 107.249 12.7812 107.593C13.3172 107.929 13.7372 108.425 14.0412 109.081C14.3452 109.729 14.4972 110.501 14.4972 111.397C14.4972 112.293 14.3452 113.069 14.0412 113.725C13.7372 114.373 13.3172 114.869 12.7812 115.213C12.2532 115.549 11.6532 115.717 10.9812 115.717ZM10.9812 114.361C11.5812 114.361 12.0532 114.113 12.3972 113.617C12.7492 113.121 12.9252 112.381 12.9252 111.397C12.9252 110.413 12.7492 109.673 12.3972 109.177C12.0532 108.681 11.5812 108.433 10.9812 108.433C10.3892 108.433 9.91722 108.681 9.56522 109.177C9.22122 109.673 9.04922 110.413 9.04922 111.397C9.04922 112.381 9.22122 113.121 9.56522 113.617C9.91722 114.113 10.3892 114.361 10.9812 114.361Z" fill="#353535"/>
<path d="M3.156 27.941C4.34 27.941 5.216 28.173 5.784 28.637C6.352 29.093 6.636 29.717 6.636 30.509C6.636 31.013 6.512 31.469 6.264 31.877C6.016 32.285 5.644 32.609 5.148 32.849C4.652 33.089 4.04 33.209 3.312 33.209C2.712 33.209 2.132 33.125 1.572 32.957C1.012 32.781 0.54 32.541 0.156 32.237L0.816 31.025C1.128 31.281 1.5 31.485 1.932 31.637C2.372 31.781 2.824 31.853 3.288 31.853C3.84 31.853 4.272 31.741 4.584 31.517C4.904 31.285 5.064 30.969 5.064 30.569C5.064 30.137 4.892 29.813 4.548 29.597C4.212 29.373 3.632 29.261 2.808 29.261H0.78L1.212 24.689H6.144V25.997H2.532L2.352 27.941H3.156ZM11.0398 33.209C10.3678 33.209 9.76781 33.041 9.23981 32.705C8.71181 32.361 8.29581 31.865 7.99181 31.217C7.68781 30.561 7.53581 29.785 7.53581 28.889C7.53581 27.993 7.68781 27.221 7.99181 26.573C8.29581 25.917 8.71181 25.421 9.23981 25.085C9.76781 24.741 10.3678 24.569 11.0398 24.569C11.7118 24.569 12.3118 24.741 12.8398 25.085C13.3758 25.421 13.7958 25.917 14.0998 26.573C14.4038 27.221 14.5558 27.993 14.5558 28.889C14.5558 29.785 14.4038 30.561 14.0998 31.217C13.7958 31.865 13.3758 32.361 12.8398 32.705C12.3118 33.041 11.7118 33.209 11.0398 33.209ZM11.0398 31.853C11.6398 31.853 12.1118 31.605 12.4558 31.109C12.8078 30.613 12.9838 29.873 12.9838 28.889C12.9838 27.905 12.8078 27.165 12.4558 26.669C12.1118 26.173 11.6398 25.925 11.0398 25.925C10.4478 25.925 9.97581 26.173 9.62381 26.669C9.27981 27.165 9.10781 27.905 9.10781 28.889C9.10781 29.873 9.27981 30.613 9.62381 31.109C9.97581 31.605 10.4478 31.853 11.0398 31.853Z" fill="#353535"/>
<path d="M242.156 308.652C241.98 308.796 241.764 308.904 241.508 308.976C241.26 309.048 240.996 309.084 240.716 309.084C240.012 309.084 239.468 308.9 239.084 308.532C238.7 308.164 238.508 307.628 238.508 306.924V303.84H237.452V302.64H238.508V301.176H240.008V302.64H241.724V303.84H240.008V306.888C240.008 307.2 240.084 307.44 240.236 307.608C240.388 307.768 240.608 307.848 240.896 307.848C241.232 307.848 241.512 307.76 241.736 307.584L242.156 308.652ZM249.203 305.832C249.203 305.936 249.195 306.084 249.179 306.276H244.151C244.239 306.748 244.467 307.124 244.835 307.404C245.211 307.676 245.675 307.812 246.227 307.812C246.931 307.812 247.511 307.58 247.967 307.116L248.771 308.04C248.483 308.384 248.119 308.644 247.679 308.82C247.239 308.996 246.743 309.084 246.191 309.084C245.487 309.084 244.867 308.944 244.331 308.664C243.795 308.384 243.379 307.996 243.083 307.5C242.795 306.996 242.651 306.428 242.651 305.796C242.651 305.172 242.791 304.612 243.071 304.116C243.359 303.612 243.755 303.22 244.259 302.94C244.763 302.66 245.331 302.52 245.963 302.52C246.587 302.52 247.143 302.66 247.631 302.94C248.127 303.212 248.511 303.6 248.783 304.104C249.063 304.6 249.203 305.176 249.203 305.832ZM245.963 303.72C245.483 303.72 245.075 303.864 244.739 304.152C244.411 304.432 244.211 304.808 244.139 305.28H247.775C247.711 304.816 247.515 304.44 247.187 304.152C246.859 303.864 246.451 303.72 245.963 303.72ZM252.072 303.528C252.504 302.856 253.264 302.52 254.352 302.52V303.948C254.224 303.924 254.108 303.912 254.004 303.912C253.42 303.912 252.964 304.084 252.636 304.428C252.308 304.764 252.144 305.252 252.144 305.892V309H250.644V302.592H252.072V303.528ZM258.506 309.084C257.842 309.084 257.246 308.944 256.718 308.664C256.19 308.384 255.778 307.996 255.482 307.5C255.186 306.996 255.038 306.428 255.038 305.796C255.038 305.164 255.186 304.6 255.482 304.104C255.778 303.608 256.186 303.22 256.706 302.94C257.234 302.66 257.834 302.52 258.506 302.52C259.138 302.52 259.69 302.648 260.162 302.904C260.642 303.16 261.002 303.528 261.242 304.008L260.09 304.68C259.906 304.384 259.674 304.164 259.394 304.02C259.122 303.868 258.822 303.792 258.494 303.792C257.934 303.792 257.47 303.976 257.102 304.344C256.734 304.704 256.55 305.188 256.55 305.796C256.55 306.404 256.73 306.892 257.09 307.26C257.458 307.62 257.926 307.8 258.494 307.8C258.822 307.8 259.122 307.728 259.394 307.584C259.674 307.432 259.906 307.208 260.09 306.912L261.242 307.584C260.994 308.064 260.63 308.436 260.15 308.7C259.678 308.956 259.13 309.084 258.506 309.084ZM257.882 311.736C257.45 311.736 257.082 311.652 256.778 311.484L257.054 310.776C257.302 310.904 257.574 310.968 257.87 310.968C258.294 310.968 258.506 310.824 258.506 310.536C258.506 310.416 258.454 310.32 258.35 310.248C258.246 310.176 258.086 310.14 257.87 310.14H257.498L257.822 308.916H258.638L258.47 309.588C258.814 309.628 259.074 309.736 259.25 309.912C259.426 310.096 259.514 310.324 259.514 310.596C259.514 310.94 259.366 311.216 259.07 311.424C258.774 311.632 258.378 311.736 257.882 311.736ZM264.986 302.52C265.93 302.52 266.65 302.748 267.146 303.204C267.65 303.652 267.902 304.332 267.902 305.244V309H266.486V308.22C266.302 308.5 266.038 308.716 265.694 308.868C265.358 309.012 264.95 309.084 264.47 309.084C263.99 309.084 263.57 309.004 263.21 308.844C262.85 308.676 262.57 308.448 262.37 308.16C262.178 307.864 262.082 307.532 262.082 307.164C262.082 306.588 262.294 306.128 262.718 305.784C263.15 305.432 263.826 305.256 264.746 305.256H266.402V305.16C266.402 304.712 266.266 304.368 265.994 304.128C265.73 303.888 265.334 303.768 264.806 303.768C264.446 303.768 264.09 303.824 263.738 303.936C263.394 304.048 263.102 304.204 262.862 304.404L262.274 303.312C262.61 303.056 263.014 302.86 263.486 302.724C263.958 302.588 264.458 302.52 264.986 302.52ZM264.782 307.992C265.158 307.992 265.49 307.908 265.778 307.74C266.074 307.564 266.282 307.316 266.402 306.996V306.252H264.854C263.99 306.252 263.558 306.536 263.558 307.104C263.558 307.376 263.666 307.592 263.882 307.752C264.098 307.912 264.398 307.992 264.782 307.992Z" fill="#353535"/>
<path d="M375.792 302.592V311.328H374.292V308.22C373.788 308.796 373.104 309.084 372.24 309.084C371.616 309.084 371.056 308.948 370.56 308.676C370.072 308.404 369.688 308.02 369.408 307.524C369.136 307.028 369 306.452 369 305.796C369 305.148 369.14 304.576 369.42 304.08C369.7 303.584 370.084 303.2 370.572 302.928C371.06 302.656 371.616 302.52 372.24 302.52C372.68 302.52 373.08 302.596 373.44 302.748C373.808 302.9 374.116 303.128 374.364 303.432V302.592H375.792ZM372.408 307.8C372.96 307.8 373.416 307.616 373.776 307.248C374.136 306.88 374.316 306.396 374.316 305.796C374.316 305.196 374.136 304.712 373.776 304.344C373.416 303.976 372.96 303.792 372.408 303.792C371.856 303.792 371.4 303.976 371.04 304.344C370.688 304.712 370.512 305.196 370.512 305.796C370.512 306.396 370.688 306.88 371.04 307.248C371.4 307.616 371.856 307.8 372.408 307.8ZM383.959 302.592V309H382.531V308.184C382.291 308.472 381.991 308.696 381.631 308.856C381.271 309.008 380.883 309.084 380.467 309.084C379.611 309.084 378.935 308.848 378.439 308.376C377.951 307.896 377.707 307.188 377.707 306.252V302.592H379.207V306.048C379.207 306.624 379.335 307.056 379.591 307.344C379.855 307.624 380.227 307.764 380.707 307.764C381.243 307.764 381.667 307.6 381.979 307.272C382.299 306.936 382.459 306.456 382.459 305.832V302.592H383.959ZM388.371 302.52C389.315 302.52 390.035 302.748 390.531 303.204C391.035 303.652 391.287 304.332 391.287 305.244V309H389.871V308.22C389.687 308.5 389.423 308.716 389.079 308.868C388.743 309.012 388.335 309.084 387.855 309.084C387.375 309.084 386.955 309.004 386.595 308.844C386.235 308.676 385.955 308.448 385.755 308.16C385.563 307.864 385.467 307.532 385.467 307.164C385.467 306.588 385.679 306.128 386.103 305.784C386.535 305.432 387.211 305.256 388.131 305.256H389.787V305.16C389.787 304.712 389.651 304.368 389.379 304.128C389.115 303.888 388.719 303.768 388.191 303.768C387.831 303.768 387.475 303.824 387.123 303.936C386.779 304.048 386.487 304.204 386.247 304.404L385.659 303.312C385.995 303.056 386.399 302.86 386.871 302.724C387.343 302.588 387.843 302.52 388.371 302.52ZM388.167 307.992C388.543 307.992 388.875 307.908 389.163 307.74C389.459 307.564 389.667 307.316 389.787 306.996V306.252H388.239C387.375 306.252 386.943 306.536 386.943 307.104C386.943 307.376 387.051 307.592 387.267 307.752C387.483 307.912 387.783 307.992 388.167 307.992ZM394.64 303.528C395.072 302.856 395.832 302.52 396.92 302.52V303.948C396.792 303.924 396.676 303.912 396.572 303.912C395.988 303.912 395.532 304.084 395.204 304.428C394.876 304.764 394.712 305.252 394.712 305.892V309H393.212V302.592H394.64V303.528ZM402.278 308.652C402.102 308.796 401.886 308.904 401.63 308.976C401.382 309.048 401.118 309.084 400.838 309.084C400.134 309.084 399.59 308.9 399.206 308.532C398.822 308.164 398.63 307.628 398.63 306.924V303.84H397.574V302.64H398.63V301.176H400.13V302.64H401.846V303.84H400.13V306.888C400.13 307.2 400.206 307.44 400.358 307.608C400.51 307.768 400.73 307.848 401.018 307.848C401.354 307.848 401.634 307.76 401.858 307.584L402.278 308.652ZM405.96 302.52C406.904 302.52 407.624 302.748 408.12 303.204C408.624 303.652 408.876 304.332 408.876 305.244V309H407.46V308.22C407.276 308.5 407.012 308.716 406.668 308.868C406.332 309.012 405.924 309.084 405.444 309.084C404.964 309.084 404.544 309.004 404.184 308.844C403.824 308.676 403.544 308.448 403.344 308.16C403.152 307.864 403.056 307.532 403.056 307.164C403.056 306.588 403.268 306.128 403.692 305.784C404.124 305.432 404.8 305.256 405.72 305.256H407.376V305.16C407.376 304.712 407.24 304.368 406.968 304.128C406.704 303.888 406.308 303.768 405.78 303.768C405.42 303.768 405.064 303.824 404.712 303.936C404.368 304.048 404.076 304.204 403.836 304.404L403.248 303.312C403.584 303.056 403.988 302.86 404.46 302.724C404.932 302.588 405.432 302.52 405.96 302.52ZM405.756 307.992C406.132 307.992 406.464 307.908 406.752 307.74C407.048 307.564 407.256 307.316 407.376 306.996V306.252H405.828C404.964 306.252 404.532 306.536 404.532 307.104C404.532 307.376 404.64 307.592 404.856 307.752C405.072 307.912 405.372 307.992 405.756 307.992Z" fill="#353535"/>
<path d="M520.976 302.592V311.328H519.476V308.22C518.972 308.796 518.288 309.084 517.424 309.084C516.8 309.084 516.24 308.948 515.744 308.676C515.256 308.404 514.872 308.02 514.592 307.524C514.32 307.028 514.184 306.452 514.184 305.796C514.184 305.148 514.324 304.576 514.604 304.08C514.884 303.584 515.268 303.2 515.756 302.928C516.244 302.656 516.8 302.52 517.424 302.52C517.864 302.52 518.264 302.596 518.624 302.748C518.992 302.9 519.3 303.128 519.548 303.432V302.592H520.976ZM517.592 307.8C518.144 307.8 518.6 307.616 518.96 307.248C519.32 306.88 519.5 306.396 519.5 305.796C519.5 305.196 519.32 304.712 518.96 304.344C518.6 303.976 518.144 303.792 517.592 303.792C517.04 303.792 516.584 303.976 516.224 304.344C515.872 304.712 515.696 305.196 515.696 305.796C515.696 306.396 515.872 306.88 516.224 307.248C516.584 307.616 517.04 307.8 517.592 307.8ZM529.143 302.592V309H527.715V308.184C527.475 308.472 527.175 308.696 526.815 308.856C526.455 309.008 526.067 309.084 525.651 309.084C524.795 309.084 524.119 308.848 523.623 308.376C523.135 307.896 522.891 307.188 522.891 306.252V302.592H524.391V306.048C524.391 306.624 524.519 307.056 524.775 307.344C525.039 307.624 525.411 307.764 525.891 307.764C526.427 307.764 526.851 307.6 527.163 307.272C527.483 306.936 527.643 306.456 527.643 305.832V302.592H529.143ZM531.106 302.592H532.606V309H531.106V302.592ZM531.862 301.536C531.59 301.536 531.362 301.452 531.178 301.284C530.994 301.108 530.902 300.892 530.902 300.636C530.902 300.38 530.994 300.168 531.178 300C531.362 299.824 531.59 299.736 531.862 299.736C532.134 299.736 532.362 299.82 532.546 299.988C532.73 300.148 532.822 300.352 532.822 300.6C532.822 300.864 532.73 301.088 532.546 301.272C532.37 301.448 532.142 301.536 531.862 301.536ZM538.211 302.52C539.019 302.52 539.667 302.756 540.155 303.228C540.643 303.7 540.887 304.4 540.887 305.328V309H539.387V305.52C539.387 304.96 539.255 304.54 538.991 304.26C538.727 303.972 538.351 303.828 537.863 303.828C537.311 303.828 536.875 303.996 536.555 304.332C536.235 304.66 536.075 305.136 536.075 305.76V309H534.575V302.592H536.003V303.42C536.251 303.124 536.563 302.9 536.939 302.748C537.315 302.596 537.739 302.52 538.211 302.52ZM546.642 308.652C546.466 308.796 546.25 308.904 545.994 308.976C545.746 309.048 545.482 309.084 545.202 309.084C544.498 309.084 543.954 308.9 543.57 308.532C543.186 308.164 542.994 307.628 542.994 306.924V303.84H541.938V302.64H542.994V301.176H544.494V302.64H546.21V303.84H544.494V306.888C544.494 307.2 544.57 307.44 544.722 307.608C544.874 307.768 545.094 307.848 545.382 307.848C545.718 307.848 545.998 307.76 546.222 307.584L546.642 308.652ZM550.324 302.52C551.268 302.52 551.988 302.748 552.484 303.204C552.988 303.652 553.24 304.332 553.24 305.244V309H551.824V308.22C551.64 308.5 551.376 308.716 551.032 308.868C550.696 309.012 550.288 309.084 549.808 309.084C549.328 309.084 548.908 309.004 548.548 308.844C548.188 308.676 547.908 308.448 547.708 308.16C547.516 307.864 547.42 307.532 547.42 307.164C547.42 306.588 547.632 306.128 548.056 305.784C548.488 305.432 549.164 305.256 550.084 305.256H551.74V305.16C551.74 304.712 551.604 304.368 551.332 304.128C551.068 303.888 550.672 303.768 550.144 303.768C549.784 303.768 549.428 303.824 549.076 303.936C548.732 304.048 548.44 304.204 548.2 304.404L547.612 303.312C547.948 303.056 548.352 302.86 548.824 302.724C549.296 302.588 549.796 302.52 550.324 302.52ZM550.12 307.992C550.496 307.992 550.828 307.908 551.116 307.74C551.412 307.564 551.62 307.316 551.74 306.996V306.252H550.192C549.328 306.252 548.896 306.536 548.896 307.104C548.896 307.376 549.004 307.592 549.22 307.752C549.436 307.912 549.736 307.992 550.12 307.992Z" fill="#353535"/>
<path d="M651.964 309.084C651.444 309.084 650.936 309.016 650.44 308.88C649.944 308.744 649.548 308.572 649.252 308.364L649.828 307.224C650.116 307.416 650.46 307.572 650.86 307.692C651.268 307.804 651.668 307.86 652.06 307.86C652.956 307.86 653.404 307.624 653.404 307.152C653.404 306.928 653.288 306.772 653.056 306.684C652.832 306.596 652.468 306.512 651.964 306.432C651.436 306.352 651.004 306.26 650.668 306.156C650.34 306.052 650.052 305.872 649.804 305.616C649.564 305.352 649.444 304.988 649.444 304.524C649.444 303.916 649.696 303.432 650.2 303.072C650.712 302.704 651.4 302.52 652.264 302.52C652.704 302.52 653.144 302.572 653.584 302.676C654.024 302.772 654.384 302.904 654.664 303.072L654.088 304.212C653.544 303.892 652.932 303.732 652.252 303.732C651.812 303.732 651.476 303.8 651.244 303.936C651.02 304.064 650.908 304.236 650.908 304.452C650.908 304.692 651.028 304.864 651.268 304.968C651.516 305.064 651.896 305.156 652.408 305.244C652.92 305.324 653.34 305.416 653.668 305.52C653.996 305.624 654.276 305.8 654.508 306.048C654.748 306.296 654.868 306.648 654.868 307.104C654.868 307.704 654.608 308.184 654.088 308.544C653.568 308.904 652.86 309.084 651.964 309.084ZM662.184 305.832C662.184 305.936 662.176 306.084 662.16 306.276H657.132C657.22 306.748 657.448 307.124 657.816 307.404C658.192 307.676 658.656 307.812 659.208 307.812C659.912 307.812 660.492 307.58 660.948 307.116L661.752 308.04C661.464 308.384 661.1 308.644 660.66 308.82C660.22 308.996 659.724 309.084 659.172 309.084C658.468 309.084 657.848 308.944 657.312 308.664C656.776 308.384 656.36 307.996 656.064 307.5C655.776 306.996 655.632 306.428 655.632 305.796C655.632 305.172 655.772 304.612 656.052 304.116C656.34 303.612 656.736 303.22 657.24 302.94C657.744 302.66 658.312 302.52 658.944 302.52C659.568 302.52 660.124 302.66 660.612 302.94C661.108 303.212 661.492 303.6 661.764 304.104C662.044 304.6 662.184 305.176 662.184 305.832ZM658.944 303.72C658.464 303.72 658.056 303.864 657.72 304.152C657.392 304.432 657.192 304.808 657.12 305.28H660.756C660.692 304.816 660.496 304.44 660.168 304.152C659.84 303.864 659.432 303.72 658.944 303.72ZM667.529 309L665.885 306.78L664.229 309H662.573L665.069 305.748L662.681 302.592H664.349L665.921 304.692L667.493 302.592H669.113L666.713 305.724L669.221 309H667.529ZM674.18 308.652C674.004 308.796 673.788 308.904 673.532 308.976C673.284 309.048 673.02 309.084 672.74 309.084C672.036 309.084 671.492 308.9 671.108 308.532C670.724 308.164 670.532 307.628 670.532 306.924V303.84H669.476V302.64H670.532V301.176H672.032V302.64H673.748V303.84H672.032V306.888C672.032 307.2 672.108 307.44 672.26 307.608C672.412 307.768 672.632 307.848 672.92 307.848C673.256 307.848 673.536 307.76 673.76 307.584L674.18 308.652ZM677.862 302.52C678.806 302.52 679.526 302.748 680.022 303.204C680.526 303.652 680.778 304.332 680.778 305.244V309H679.362V308.22C679.178 308.5 678.914 308.716 678.57 308.868C678.234 309.012 677.826 309.084 677.346 309.084C676.866 309.084 676.446 309.004 676.086 308.844C675.726 308.676 675.446 308.448 675.246 308.16C675.054 307.864 674.958 307.532 674.958 307.164C674.958 306.588 675.17 306.128 675.594 305.784C676.026 305.432 676.702 305.256 677.622 305.256H679.278V305.16C679.278 304.712 679.142 304.368 678.87 304.128C678.606 303.888 678.21 303.768 677.682 303.768C677.322 303.768 676.966 303.824 676.614 303.936C676.27 304.048 675.978 304.204 675.738 304.404L675.15 303.312C675.486 303.056 675.89 302.86 676.362 302.724C676.834 302.588 677.334 302.52 677.862 302.52ZM677.658 307.992C678.034 307.992 678.366 307.908 678.654 307.74C678.95 307.564 679.158 307.316 679.278 306.996V306.252H677.73C676.866 306.252 676.434 306.536 676.434 307.104C676.434 307.376 676.542 307.592 676.758 307.752C676.974 307.912 677.274 307.992 677.658 307.992Z" fill="#353535"/>
<path d="M39.676 25.62V27.348H32.278V25.62H39.676ZM50.2053 25.62V27.348H42.8073V25.62H50.2053ZM60.7346 25.62V27.348H53.3366V25.62H60.7346ZM71.2639 25.62V27.348H63.8659V25.62H71.2639ZM81.7932 25.62V27.348H74.3952V25.62H81.7932ZM92.3225 25.62V27.348H84.9245V25.62H92.3225ZM102.852 25.62V27.348H95.4538V25.62H102.852ZM113.381 25.62V27.348H105.983V25.62H113.381ZM123.91 25.62V27.348H116.512V25.62H123.91ZM134.44 25.62V27.348H127.042V25.62H134.44ZM144.969 25.62V27.348H137.571V25.62H144.969ZM155.498 25.62V27.348H148.1V25.62H155.498ZM166.028 25.62V27.348H158.63V25.62H166.028ZM176.557 25.62V27.348H169.159V25.62H176.557ZM187.086 25.62V27.348H179.688V25.62H187.086ZM197.615 25.62V27.348H190.217V25.62H197.615ZM208.145 25.62V27.348H200.747V25.62H208.145ZM218.674 25.62V27.348H211.276V25.62H218.674ZM229.203 25.62V27.348H221.805V25.62H229.203ZM239.733 25.62V27.348H232.335V25.62H239.733ZM250.262 25.62V27.348H242.864V25.62H250.262ZM260.791 25.62V27.348H253.393V25.62H260.791ZM271.321 25.62V27.348H263.923V25.62H271.321ZM281.85 25.62V27.348H274.452V25.62H281.85ZM292.379 25.62V27.348H284.981V25.62H292.379ZM302.908 25.62V27.348H295.51V25.62H302.908ZM313.438 25.62V27.348H306.04V25.62H313.438ZM323.967 25.62V27.348H316.569V25.62H323.967ZM334.496 25.62V27.348H327.098V25.62H334.496ZM345.026 25.62V27.348H337.628V25.62H345.026ZM355.555 25.62V27.348H348.157V25.62H355.555ZM366.084 25.62V27.348H358.686V25.62H366.084ZM376.614 25.62V27.348H369.216V25.62H376.614ZM387.143 25.62V27.348H379.745V25.62H387.143ZM397.672 25.62V27.348H390.274V25.62H397.672ZM408.201 25.62V27.348H400.803V25.62H408.201ZM418.731 25.62V27.348H411.333V25.62H418.731ZM429.26 25.62V27.348H421.862V25.62H429.26ZM439.789 25.62V27.348H432.391V25.62H439.789ZM450.319 25.62V27.348H442.921V25.62H450.319ZM460.848 25.62V27.348H453.45V25.62H460.848ZM471.377 25.62V27.348H463.979V25.62H471.377ZM481.907 25.62V27.348H474.509V25.62H481.907ZM492.436 25.62V27.348H485.038V25.62H492.436ZM502.965 25.62V27.348H495.567V25.62H502.965ZM513.494 25.62V27.348H506.096V25.62H513.494ZM524.024 25.62V27.348H516.626V25.62H524.024ZM534.553 25.62V27.348H527.155V25.62H534.553ZM545.082 25.62V27.348H537.684V25.62H545.082ZM555.612 25.62V27.348H548.214V25.62H555.612ZM566.141 25.62V27.348H558.743V25.62H566.141ZM576.67 25.62V27.348H569.272V25.62H576.67ZM587.199 25.62V27.348H579.801V25.62H587.199ZM597.729 25.62V27.348H590.331V25.62H597.729ZM608.258 25.62V27.348H600.86V25.62H608.258ZM618.787 25.62V27.348H611.389V25.62H618.787ZM629.317 25.62V27.348H621.919V25.62H629.317ZM639.846 25.62V27.348H632.448V25.62H639.846ZM650.375 25.62V27.348H642.977V25.62H650.375ZM660.905 25.62V27.348H653.507V25.62H660.905ZM671.434 25.62V27.348H664.036V25.62H671.434ZM681.963 25.62V27.348H674.565V25.62H681.963Z" fill="#E4E3EA"/>
<path d="M39.676 108.128V109.856H32.278V108.128H39.676ZM50.2053 108.128V109.856H42.8073V108.128H50.2053ZM60.7346 108.128V109.856H53.3366V108.128H60.7346ZM71.2639 108.128V109.856H63.8659V108.128H71.2639ZM81.7932 108.128V109.856H74.3952V108.128H81.7932ZM92.3225 108.128V109.856H84.9245V108.128H92.3225ZM102.852 108.128V109.856H95.4538V108.128H102.852ZM113.381 108.128V109.856H105.983V108.128H113.381ZM123.91 108.128V109.856H116.512V108.128H123.91ZM134.44 108.128V109.856H127.042V108.128H134.44ZM144.969 108.128V109.856H137.571V108.128H144.969ZM155.498 108.128V109.856H148.1V108.128H155.498ZM166.028 108.128V109.856H158.63V108.128H166.028ZM176.557 108.128V109.856H169.159V108.128H176.557ZM187.086 108.128V109.856H179.688V108.128H187.086ZM197.615 108.128V109.856H190.217V108.128H197.615ZM208.145 108.128V109.856H200.747V108.128H208.145ZM218.674 108.128V109.856H211.276V108.128H218.674ZM229.203 108.128V109.856H221.805V108.128H229.203ZM239.733 108.128V109.856H232.335V108.128H239.733ZM250.262 108.128V109.856H242.864V108.128H250.262ZM260.791 108.128V109.856H253.393V108.128H260.791ZM271.321 108.128V109.856H263.923V108.128H271.321ZM281.85 108.128V109.856H274.452V108.128H281.85ZM292.379 108.128V109.856H284.981V108.128H292.379ZM302.908 108.128V109.856H295.51V108.128H302.908ZM313.438 108.128V109.856H306.04V108.128H313.438ZM323.967 108.128V109.856H316.569V108.128H323.967ZM334.496 108.128V109.856H327.098V108.128H334.496ZM345.026 108.128V109.856H337.628V108.128H345.026ZM355.555 108.128V109.856H348.157V108.128H355.555ZM366.084 108.128V109.856H358.686V108.128H366.084ZM376.614 108.128V109.856H369.216V108.128H376.614ZM387.143 108.128V109.856H379.745V108.128H387.143ZM397.672 108.128V109.856H390.274V108.128H397.672ZM408.201 108.128V109.856H400.803V108.128H408.201ZM418.731 108.128V109.856H411.333V108.128H418.731ZM429.26 108.128V109.856H421.862V108.128H429.26ZM439.789 108.128V109.856H432.391V108.128H439.789ZM450.319 108.128V109.856H442.921V108.128H450.319ZM460.848 108.128V109.856H453.45V108.128H460.848ZM471.377 108.128V109.856H463.979V108.128H471.377ZM481.907 108.128V109.856H474.509V108.128H481.907ZM492.436 108.128V109.856H485.038V108.128H492.436ZM502.965 108.128V109.856H495.567V108.128H502.965ZM513.494 108.128V109.856H506.096V108.128H513.494ZM524.024 108.128V109.856H516.626V108.128H524.024ZM534.553 108.128V109.856H527.155V108.128H534.553ZM545.082 108.128V109.856H537.684V108.128H545.082ZM555.612 108.128V109.856H548.214V108.128H555.612ZM566.141 108.128V109.856H558.743V108.128H566.141ZM576.67 108.128V109.856H569.272V108.128H576.67ZM587.199 108.128V109.856H579.801V108.128H587.199ZM597.729 108.128V109.856H590.331V108.128H597.729ZM608.258 108.128V109.856H600.86V108.128H608.258ZM618.787 108.128V109.856H611.389V108.128H618.787ZM629.317 108.128V109.856H621.919V108.128H629.317ZM639.846 108.128V109.856H632.448V108.128H639.846ZM650.375 108.128V109.856H642.977V108.128H650.375ZM660.905 108.128V109.856H653.507V108.128H660.905ZM671.434 108.128V109.856H664.036V108.128H671.434ZM681.963 108.128V109.856H674.565V108.128H681.963Z" fill="#E4E3EA"/>
<path d="M39.676 190.636V192.364H32.278V190.636H39.676ZM50.2053 190.636V192.364H42.8073V190.636H50.2053ZM60.7346 190.636V192.364H53.3366V190.636H60.7346ZM71.2639 190.636V192.364H63.8659V190.636H71.2639ZM81.7932 190.636V192.364H74.3952V190.636H81.7932ZM92.3225 190.636V192.364H84.9245V190.636H92.3225ZM102.852 190.636V192.364H95.4538V190.636H102.852ZM113.381 190.636V192.364H105.983V190.636H113.381ZM123.91 190.636V192.364H116.512V190.636H123.91ZM134.44 190.636V192.364H127.042V190.636H134.44ZM144.969 190.636V192.364H137.571V190.636H144.969ZM155.498 190.636V192.364H148.1V190.636H155.498ZM166.028 190.636V192.364H158.63V190.636H166.028ZM176.557 190.636V192.364H169.159V190.636H176.557ZM187.086 190.636V192.364H179.688V190.636H187.086ZM197.615 190.636V192.364H190.217V190.636H197.615ZM208.145 190.636V192.364H200.747V190.636H208.145ZM218.674 190.636V192.364H211.276V190.636H218.674ZM229.203 190.636V192.364H221.805V190.636H229.203ZM239.733 190.636V192.364H232.335V190.636H239.733ZM250.262 190.636V192.364H242.864V190.636H250.262ZM260.791 190.636V192.364H253.393V190.636H260.791ZM271.321 190.636V192.364H263.923V190.636H271.321ZM281.85 190.636V192.364H274.452V190.636H281.85ZM292.379 190.636V192.364H284.981V190.636H292.379ZM302.908 190.636V192.364H295.51V190.636H302.908ZM313.438 190.636V192.364H306.04V190.636H313.438ZM323.967 190.636V192.364H316.569V190.636H323.967ZM334.496 190.636V192.364H327.098V190.636H334.496ZM345.026 190.636V192.364H337.628V190.636H345.026ZM355.555 190.636V192.364H348.157V190.636H355.555ZM366.084 190.636V192.364H358.686V190.636H366.084ZM376.614 190.636V192.364H369.216V190.636H376.614ZM387.143 190.636V192.364H379.745V190.636H387.143ZM397.672 190.636V192.364H390.274V190.636H397.672ZM408.201 190.636V192.364H400.803V190.636H408.201ZM418.731 190.636V192.364H411.333V190.636H418.731ZM429.26 190.636V192.364H421.862V190.636H429.26ZM439.789 190.636V192.364H432.391V190.636H439.789ZM450.319 190.636V192.364H442.921V190.636H450.319ZM460.848 190.636V192.364H453.45V190.636H460.848ZM471.377 190.636V192.364H463.979V190.636H471.377ZM481.907 190.636V192.364H474.509V190.636H481.907ZM492.436 190.636V192.364H485.038V190.636H492.436ZM502.965 190.636V192.364H495.567V190.636H502.965ZM513.494 190.636V192.364H506.096V190.636H513.494ZM524.024 190.636V192.364H516.626V190.636H524.024ZM534.553 190.636V192.364H527.155V190.636H534.553ZM545.082 190.636V192.364H537.684V190.636H545.082ZM555.612 190.636V192.364H548.214V190.636H555.612ZM566.141 190.636V192.364H558.743V190.636H566.141ZM576.67 190.636V192.364H569.272V190.636H576.67ZM587.199 190.636V192.364H579.801V190.636H587.199ZM597.729 190.636V192.364H590.331V190.636H597.729ZM608.258 190.636V192.364H600.86V190.636H608.258ZM618.787 190.636V192.364H611.389V190.636H618.787ZM629.317 190.636V192.364H621.919V190.636H629.317ZM639.846 190.636V192.364H632.448V190.636H639.846ZM650.375 190.636V192.364H642.977V190.636H650.375ZM660.905 190.636V192.364H653.507V190.636H660.905ZM671.434 190.636V192.364H664.036V190.636H671.434ZM681.963 190.636V192.364H674.565V190.636H681.963Z" fill="#E4E3EA"/>
<rect x="82" y="133" width="48" height="140" rx="4" fill="url(#paint0_linear_809_10)"/>
<rect x="237" y="233" width="49" height="42" rx="4" fill="url(#paint1_linear_809_10)"/>
<rect x="369" width="44" height="273" rx="4" fill="url(#paint2_linear_809_10)"/>
<rect x="514" y="139" width="49" height="134" rx="4" fill="url(#paint3_linear_809_10)"/>
<rect x="645" y="178" width="45" height="95" rx="4" fill="url(#paint4_linear_809_10)"/>
<defs>
<linearGradient id="paint0_linear_809_10" x1="82" y1="203" x2="130" y2="203" gradientUnits="userSpaceOnUse">
<stop stop-color="#FF500F"/>
<stop offset="1" stop-color="#FF8700"/>
</linearGradient>
<linearGradient id="paint1_linear_809_10" x1="237" y1="254" x2="286" y2="254" gradientUnits="userSpaceOnUse">
<stop stop-color="#FF500F"/>
<stop offset="1" stop-color="#FF8700"/>
</linearGradient>
<linearGradient id="paint2_linear_809_10" x1="369" y1="136.5" x2="413" y2="136.5" gradientUnits="userSpaceOnUse">
<stop stop-color="#FF500F"/>
<stop offset="1" stop-color="#FF8700"/>
</linearGradient>
<linearGradient id="paint3_linear_809_10" x1="514" y1="206" x2="563" y2="206" gradientUnits="userSpaceOnUse">
<stop stop-color="#FF500F"/>
<stop offset="1" stop-color="#FF8700"/>
</linearGradient>
<linearGradient id="paint4_linear_809_10" x1="645" y1="225.5" x2="690" y2="225.5" gradientUnits="userSpaceOnUse">
<stop stop-color="#FF500F"/>
<stop offset="1" stop-color="#FF8700"/>
</linearGradient>
</defs>
</svg>
