<svg width="281" height="312" viewBox="0 0 281 312" fill="none" xmlns="http://www.w3.org/2000/svg">
<circle cx="135" cy="100" r="100" fill="#FE9800"/>
<path d="M135 0C108.478 -3.16267e-07 83.043 10.5357 64.2893 29.2893C45.5357 48.043 35 73.4783 35 100C35 126.522 45.5357 151.957 64.2893 170.711C83.0429 189.464 108.478 200 135 200L135 164C118.026 164 101.747 157.257 89.7452 145.255C77.7428 133.252 71 116.974 71 100C71 83.0261 77.7428 66.7475 89.7452 54.7452C101.747 42.7428 118.026 36 135 36L135 0Z" fill="#68CAA0"/>
<path d="M222.86 52.2433C214.31 36.5148 201.695 23.3697 186.332 14.1803C170.969 4.99091 153.42 0.0941851 135.519 0.00134477L135.332 36.0009C146.789 36.0603 158.02 39.1942 167.853 45.0754C177.685 50.9566 185.759 59.3695 191.23 69.4357L222.86 52.2433Z" fill="#EA6367"/>
<circle cx="135" cy="100" r="64" fill="white"/>
<rect y="252" width="20" height="20" rx="3" fill="#68CAA0"/>
<rect x="148" y="252" width="20" height="20" rx="3" fill="#FE9800"/>
<rect x="80" y="292" width="20" height="20" rx="3" fill="#EA6367"/>
<path d="M33.682 261.994C35.0633 261.994 36.0853 262.265 36.748 262.806C37.4107 263.338 37.742 264.066 37.742 264.99C37.742 265.578 37.5973 266.11 37.308 266.586C37.0187 267.062 36.5847 267.44 36.006 267.72C35.4273 268 34.7133 268.14 33.864 268.14C33.164 268.14 32.4873 268.042 31.834 267.846C31.1807 267.641 30.63 267.361 30.182 267.006L30.952 265.592C31.316 265.891 31.75 266.129 32.254 266.306C32.7673 266.474 33.2947 266.558 33.836 266.558C34.48 266.558 34.984 266.427 35.348 266.166C35.7213 265.895 35.908 265.527 35.908 265.06C35.908 264.556 35.7073 264.178 35.306 263.926C34.914 263.665 34.2373 263.534 33.276 263.534H30.91L31.414 258.2H37.168V259.726H32.954L32.744 261.994H33.682ZM42.8798 268.14C42.0958 268.14 41.3958 267.944 40.7798 267.552C40.1638 267.151 39.6784 266.572 39.3238 265.816C38.9691 265.051 38.7918 264.145 38.7918 263.1C38.7918 262.055 38.9691 261.154 39.3238 260.398C39.6784 259.633 40.1638 259.054 40.7798 258.662C41.3958 258.261 42.0958 258.06 42.8798 258.06C43.6638 258.06 44.3638 258.261 44.9798 258.662C45.6051 259.054 46.0951 259.633 46.4498 260.398C46.8044 261.154 46.9818 262.055 46.9818 263.1C46.9818 264.145 46.8044 265.051 46.4498 265.816C46.0951 266.572 45.6051 267.151 44.9798 267.552C44.3638 267.944 43.6638 268.14 42.8798 268.14ZM42.8798 266.558C43.5798 266.558 44.1304 266.269 44.5318 265.69C44.9424 265.111 45.1478 264.248 45.1478 263.1C45.1478 261.952 44.9424 261.089 44.5318 260.51C44.1304 259.931 43.5798 259.642 42.8798 259.642C42.1891 259.642 41.6384 259.931 41.2278 260.51C40.8264 261.089 40.6258 261.952 40.6258 263.1C40.6258 264.248 40.8264 265.111 41.2278 265.69C41.6384 266.269 42.1891 266.558 42.8798 266.558ZM50.3957 263.478C49.6957 263.478 49.131 263.231 48.7017 262.736C48.2724 262.241 48.0577 261.593 48.0577 260.79C48.0577 259.987 48.2724 259.339 48.7017 258.844C49.131 258.349 49.6957 258.102 50.3957 258.102C51.0957 258.102 51.6604 258.349 52.0897 258.844C52.5284 259.329 52.7477 259.978 52.7477 260.79C52.7477 261.602 52.5284 262.255 52.0897 262.75C51.6604 263.235 51.0957 263.478 50.3957 263.478ZM56.2757 258.2H57.6477L50.9557 268H49.5837L56.2757 258.2ZM50.3957 262.498C50.7784 262.498 51.0724 262.349 51.2777 262.05C51.4924 261.751 51.5997 261.331 51.5997 260.79C51.5997 260.249 51.4924 259.829 51.2777 259.53C51.0724 259.231 50.7784 259.082 50.3957 259.082C50.0317 259.082 49.7377 259.236 49.5137 259.544C49.299 259.843 49.1917 260.258 49.1917 260.79C49.1917 261.322 49.299 261.742 49.5137 262.05C49.7377 262.349 50.0317 262.498 50.3957 262.498ZM56.8217 268.098C56.1217 268.098 55.557 267.851 55.1277 267.356C54.6984 266.861 54.4837 266.213 54.4837 265.41C54.4837 264.607 54.6984 263.959 55.1277 263.464C55.557 262.969 56.1217 262.722 56.8217 262.722C57.5217 262.722 58.0864 262.969 58.5157 263.464C58.9544 263.959 59.1737 264.607 59.1737 265.41C59.1737 266.213 58.9544 266.861 58.5157 267.356C58.0864 267.851 57.5217 268.098 56.8217 268.098ZM56.8217 267.118C57.195 267.118 57.489 266.969 57.7037 266.67C57.9184 266.362 58.0257 265.942 58.0257 265.41C58.0257 264.878 57.9184 264.463 57.7037 264.164C57.489 263.856 57.195 263.702 56.8217 263.702C56.4484 263.702 56.1544 263.851 55.9397 264.15C55.725 264.449 55.6177 264.869 55.6177 265.41C55.6177 265.951 55.725 266.371 55.9397 266.67C56.1544 266.969 56.4484 267.118 56.8217 267.118ZM64.2798 263.38H68.1298V264.836H64.2798V263.38ZM77.1196 268.14C76.3636 268.14 75.631 268.033 74.9216 267.818C74.2216 267.603 73.6663 267.319 73.2556 266.964L73.8856 265.55C74.287 265.867 74.777 266.129 75.3556 266.334C75.9436 266.53 76.5316 266.628 77.1196 266.628C77.8476 266.628 78.389 266.511 78.7436 266.278C79.1076 266.045 79.2896 265.737 79.2896 265.354C79.2896 265.074 79.187 264.845 78.9816 264.668C78.7856 264.481 78.5336 264.337 78.2256 264.234C77.9176 264.131 77.4976 264.015 76.9656 263.884C76.219 263.707 75.6123 263.529 75.1456 263.352C74.6883 263.175 74.2916 262.899 73.9556 262.526C73.629 262.143 73.4656 261.63 73.4656 260.986C73.4656 260.445 73.6103 259.955 73.8996 259.516C74.1983 259.068 74.6416 258.713 75.2296 258.452C75.827 258.191 76.555 258.06 77.4136 258.06C78.011 258.06 78.599 258.135 79.1776 258.284C79.7563 258.433 80.2556 258.648 80.6756 258.928L80.1016 260.342C79.6723 260.09 79.2243 259.899 78.7576 259.768C78.291 259.637 77.8383 259.572 77.3996 259.572C76.681 259.572 76.1443 259.693 75.7896 259.936C75.4443 260.179 75.2716 260.501 75.2716 260.902C75.2716 261.182 75.3696 261.411 75.5656 261.588C75.771 261.765 76.0276 261.905 76.3356 262.008C76.6436 262.111 77.0636 262.227 77.5956 262.358C78.3236 262.526 78.921 262.703 79.3876 262.89C79.8543 263.067 80.251 263.343 80.5776 263.716C80.9136 264.089 81.0816 264.593 81.0816 265.228C81.0816 265.769 80.9323 266.259 80.6336 266.698C80.3443 267.137 79.901 267.487 79.3036 267.748C78.7063 268.009 77.9783 268.14 77.1196 268.14ZM89.7463 264.304C89.7463 264.425 89.737 264.598 89.7183 264.822H83.8523C83.955 265.373 84.221 265.811 84.6503 266.138C85.089 266.455 85.6303 266.614 86.2743 266.614C87.0956 266.614 87.7723 266.343 88.3043 265.802L89.2423 266.88C88.9063 267.281 88.4816 267.585 87.9683 267.79C87.455 267.995 86.8763 268.098 86.2323 268.098C85.411 268.098 84.6876 267.935 84.0623 267.608C83.437 267.281 82.9516 266.829 82.6063 266.25C82.2703 265.662 82.1023 264.999 82.1023 264.262C82.1023 263.534 82.2656 262.881 82.5923 262.302C82.9283 261.714 83.3903 261.257 83.9783 260.93C84.5663 260.603 85.229 260.44 85.9663 260.44C86.6943 260.44 87.343 260.603 87.9123 260.93C88.491 261.247 88.939 261.7 89.2563 262.288C89.583 262.867 89.7463 263.539 89.7463 264.304ZM85.9663 261.84C85.4063 261.84 84.9303 262.008 84.5383 262.344C84.1556 262.671 83.9223 263.109 83.8383 263.66H88.0803C88.0056 263.119 87.777 262.68 87.3943 262.344C87.0116 262.008 86.5356 261.84 85.9663 261.84ZM98.8473 260.524V266.866C98.8473 269.498 97.5033 270.814 94.8153 270.814C94.0966 270.814 93.4153 270.721 92.7713 270.534C92.1273 270.357 91.5953 270.095 91.1753 269.75L91.9593 268.434C92.286 268.705 92.6966 268.919 93.1913 269.078C93.6953 269.246 94.204 269.33 94.7173 269.33C95.5386 269.33 96.1406 269.143 96.5233 268.77C96.906 268.397 97.0973 267.827 97.0973 267.062V266.67C96.7986 266.997 96.4346 267.244 96.0053 267.412C95.576 267.58 95.1046 267.664 94.5913 267.664C93.882 267.664 93.238 267.515 92.6593 267.216C92.09 266.908 91.6373 266.479 91.3013 265.928C90.9746 265.377 90.8113 264.747 90.8113 264.038C90.8113 263.329 90.9746 262.703 91.3013 262.162C91.6373 261.611 92.09 261.187 92.6593 260.888C93.238 260.589 93.882 260.44 94.5913 260.44C95.1326 260.44 95.6226 260.529 96.0613 260.706C96.5093 260.883 96.8826 261.154 97.1813 261.518V260.524H98.8473ZM94.8573 266.18C95.52 266.18 96.0613 265.984 96.4813 265.592C96.9106 265.191 97.1253 264.673 97.1253 264.038C97.1253 263.413 96.9106 262.904 96.4813 262.512C96.0613 262.12 95.52 261.924 94.8573 261.924C94.1853 261.924 93.6346 262.12 93.2053 262.512C92.7853 262.904 92.5753 263.413 92.5753 264.038C92.5753 264.673 92.7853 265.191 93.2053 265.592C93.6346 265.984 94.1853 266.18 94.8573 266.18ZM108.386 260.524V268H106.72V267.048C106.44 267.384 106.09 267.645 105.67 267.832C105.25 268.009 104.797 268.098 104.312 268.098C103.313 268.098 102.525 267.823 101.946 267.272C101.377 266.712 101.092 265.886 101.092 264.794V260.524H102.842V264.556C102.842 265.228 102.991 265.732 103.29 266.068C103.598 266.395 104.032 266.558 104.592 266.558C105.217 266.558 105.712 266.367 106.076 265.984C106.449 265.592 106.636 265.032 106.636 264.304V260.524H108.386ZM112.343 261.616C112.847 260.832 113.734 260.44 115.003 260.44V262.106C114.854 262.078 114.719 262.064 114.597 262.064C113.916 262.064 113.384 262.265 113.001 262.666C112.619 263.058 112.427 263.627 112.427 264.374V268H110.677V260.524H112.343V261.616ZM119.779 268.098C119.023 268.098 118.342 267.935 117.735 267.608C117.129 267.281 116.653 266.829 116.307 266.25C115.971 265.662 115.803 264.999 115.803 264.262C115.803 263.525 115.971 262.867 116.307 262.288C116.653 261.709 117.129 261.257 117.735 260.93C118.342 260.603 119.023 260.44 119.779 260.44C120.545 260.44 121.231 260.603 121.837 260.93C122.444 261.257 122.915 261.709 123.251 262.288C123.597 262.867 123.769 263.525 123.769 264.262C123.769 264.999 123.597 265.662 123.251 266.25C122.915 266.829 122.444 267.281 121.837 267.608C121.231 267.935 120.545 268.098 119.779 268.098ZM119.779 266.6C120.423 266.6 120.955 266.385 121.375 265.956C121.795 265.527 122.005 264.962 122.005 264.262C122.005 263.562 121.795 262.997 121.375 262.568C120.955 262.139 120.423 261.924 119.779 261.924C119.135 261.924 118.603 262.139 118.183 262.568C117.773 262.997 117.567 263.562 117.567 264.262C117.567 264.962 117.773 265.527 118.183 265.956C118.603 266.385 119.135 266.6 119.779 266.6Z" fill="#68CAA0"/>
<path d="M182.788 262.246C183.693 262.358 184.384 262.666 184.86 263.17C185.336 263.674 185.574 264.304 185.574 265.06C185.574 265.629 185.429 266.147 185.14 266.614C184.851 267.081 184.412 267.454 183.824 267.734C183.245 268.005 182.536 268.14 181.696 268.14C180.996 268.14 180.319 268.042 179.666 267.846C179.022 267.641 178.471 267.361 178.014 267.006L178.798 265.592C179.153 265.891 179.582 266.129 180.086 266.306C180.599 266.474 181.127 266.558 181.668 266.558C182.312 266.558 182.816 266.427 183.18 266.166C183.553 265.895 183.74 265.531 183.74 265.074C183.74 264.617 183.563 264.262 183.208 264.01C182.863 263.749 182.331 263.618 181.612 263.618H180.716V262.372L182.942 259.726H178.49V258.2H185.168V259.418L182.788 262.246ZM195.5 265.774H193.764V268H192V265.774H186.624V264.514L191.454 258.2H193.4L188.85 264.234H192.056V262.26H193.764V264.234H195.5V265.774ZM198.027 263.478C197.327 263.478 196.762 263.231 196.333 262.736C195.903 262.241 195.689 261.593 195.689 260.79C195.689 259.987 195.903 259.339 196.333 258.844C196.762 258.349 197.327 258.102 198.027 258.102C198.727 258.102 199.291 258.349 199.721 258.844C200.159 259.329 200.379 259.978 200.379 260.79C200.379 261.602 200.159 262.255 199.721 262.75C199.291 263.235 198.727 263.478 198.027 263.478ZM203.907 258.2H205.279L198.587 268H197.215L203.907 258.2ZM198.027 262.498C198.409 262.498 198.703 262.349 198.909 262.05C199.123 261.751 199.231 261.331 199.231 260.79C199.231 260.249 199.123 259.829 198.909 259.53C198.703 259.231 198.409 259.082 198.027 259.082C197.663 259.082 197.369 259.236 197.145 259.544C196.93 259.843 196.823 260.258 196.823 260.79C196.823 261.322 196.93 261.742 197.145 262.05C197.369 262.349 197.663 262.498 198.027 262.498ZM204.453 268.098C203.753 268.098 203.188 267.851 202.759 267.356C202.329 266.861 202.115 266.213 202.115 265.41C202.115 264.607 202.329 263.959 202.759 263.464C203.188 262.969 203.753 262.722 204.453 262.722C205.153 262.722 205.717 262.969 206.147 263.464C206.585 263.959 206.805 264.607 206.805 265.41C206.805 266.213 206.585 266.861 206.147 267.356C205.717 267.851 205.153 268.098 204.453 268.098ZM204.453 267.118C204.826 267.118 205.12 266.969 205.335 266.67C205.549 266.362 205.657 265.942 205.657 265.41C205.657 264.878 205.549 264.463 205.335 264.164C205.12 263.856 204.826 263.702 204.453 263.702C204.079 263.702 203.785 263.851 203.571 264.15C203.356 264.449 203.249 264.869 203.249 265.41C203.249 265.951 203.356 266.371 203.571 266.67C203.785 266.969 204.079 267.118 204.453 267.118ZM211.911 263.38H215.761V264.836H211.911V263.38ZM228.068 265.732H223.168L222.202 268H220.326L224.736 258.2H226.528L230.952 268H229.048L228.068 265.732ZM227.466 264.304L225.618 260.02L223.784 264.304H227.466ZM236.456 267.594C236.251 267.762 235.999 267.888 235.7 267.972C235.411 268.056 235.103 268.098 234.776 268.098C233.955 268.098 233.32 267.883 232.872 267.454C232.424 267.025 232.2 266.399 232.2 265.578V261.98H230.968V260.58H232.2V258.872H233.95V260.58H235.952V261.98H233.95V265.536C233.95 265.9 234.039 266.18 234.216 266.376C234.394 266.563 234.65 266.656 234.986 266.656C235.378 266.656 235.705 266.553 235.966 266.348L236.456 267.594ZM244.678 264.304C244.678 264.425 244.669 264.598 244.65 264.822H238.784C238.887 265.373 239.153 265.811 239.582 266.138C240.021 266.455 240.562 266.614 241.206 266.614C242.027 266.614 242.704 266.343 243.236 265.802L244.174 266.88C243.838 267.281 243.413 267.585 242.9 267.79C242.387 267.995 241.808 268.098 241.164 268.098C240.343 268.098 239.619 267.935 238.994 267.608C238.369 267.281 237.883 266.829 237.538 266.25C237.202 265.662 237.034 264.999 237.034 264.262C237.034 263.534 237.197 262.881 237.524 262.302C237.86 261.714 238.322 261.257 238.91 260.93C239.498 260.603 240.161 260.44 240.898 260.44C241.626 260.44 242.275 260.603 242.844 260.93C243.423 261.247 243.871 261.7 244.188 262.288C244.515 262.867 244.678 263.539 244.678 264.304ZM240.898 261.84C240.338 261.84 239.862 262.008 239.47 262.344C239.087 262.671 238.854 263.109 238.77 263.66H243.012C242.937 263.119 242.709 262.68 242.326 262.344C241.943 262.008 241.467 261.84 240.898 261.84ZM250.601 260.44C251.544 260.44 252.3 260.715 252.869 261.266C253.438 261.817 253.723 262.633 253.723 263.716V268H251.973V263.94C251.973 263.287 251.819 262.797 251.511 262.47C251.203 262.134 250.764 261.966 250.195 261.966C249.551 261.966 249.042 262.162 248.669 262.554C248.296 262.937 248.109 263.492 248.109 264.22V268H246.359V260.524H248.025V261.49C248.314 261.145 248.678 260.883 249.117 260.706C249.556 260.529 250.05 260.44 250.601 260.44ZM259.441 268.098C258.667 268.098 257.971 267.935 257.355 267.608C256.739 267.281 256.259 266.829 255.913 266.25C255.568 265.662 255.395 264.999 255.395 264.262C255.395 263.525 255.568 262.867 255.913 262.288C256.259 261.709 256.735 261.257 257.341 260.93C257.957 260.603 258.657 260.44 259.441 260.44C260.179 260.44 260.823 260.589 261.373 260.888C261.933 261.187 262.353 261.616 262.633 262.176L261.289 262.96C261.075 262.615 260.804 262.358 260.477 262.19C260.16 262.013 259.81 261.924 259.427 261.924C258.774 261.924 258.233 262.139 257.803 262.568C257.374 262.988 257.159 263.553 257.159 264.262C257.159 264.971 257.369 265.541 257.789 265.97C258.219 266.39 258.765 266.6 259.427 266.6C259.81 266.6 260.16 266.516 260.477 266.348C260.804 266.171 261.075 265.909 261.289 265.564L262.633 266.348C262.344 266.908 261.919 267.342 261.359 267.65C260.809 267.949 260.169 268.098 259.441 268.098ZM258.713 271.192C258.209 271.192 257.78 271.094 257.425 270.898L257.747 270.072C258.037 270.221 258.354 270.296 258.699 270.296C259.194 270.296 259.441 270.128 259.441 269.792C259.441 269.652 259.381 269.54 259.259 269.456C259.138 269.372 258.951 269.33 258.699 269.33H258.265L258.643 267.902H259.595L259.399 268.686C259.801 268.733 260.104 268.859 260.309 269.064C260.515 269.279 260.617 269.545 260.617 269.862C260.617 270.263 260.445 270.585 260.099 270.828C259.754 271.071 259.292 271.192 258.713 271.192ZM267.002 260.44C268.103 260.44 268.943 260.706 269.522 261.238C270.11 261.761 270.404 262.554 270.404 263.618V268H268.752V267.09C268.537 267.417 268.229 267.669 267.828 267.846C267.436 268.014 266.96 268.098 266.4 268.098C265.84 268.098 265.35 268.005 264.93 267.818C264.51 267.622 264.183 267.356 263.95 267.02C263.726 266.675 263.614 266.287 263.614 265.858C263.614 265.186 263.861 264.649 264.356 264.248C264.86 263.837 265.649 263.632 266.722 263.632H268.654V263.52C268.654 262.997 268.495 262.596 268.178 262.316C267.87 262.036 267.408 261.896 266.792 261.896C266.372 261.896 265.957 261.961 265.546 262.092C265.145 262.223 264.804 262.405 264.524 262.638L263.838 261.364C264.23 261.065 264.701 260.837 265.252 260.678C265.803 260.519 266.386 260.44 267.002 260.44ZM266.764 266.824C267.203 266.824 267.59 266.726 267.926 266.53C268.271 266.325 268.514 266.035 268.654 265.662V264.794H266.848C265.84 264.794 265.336 265.125 265.336 265.788C265.336 266.105 265.462 266.357 265.714 266.544C265.966 266.731 266.316 266.824 266.764 266.824ZM268.164 259.502C267.931 259.502 267.725 259.455 267.548 259.362C267.38 259.269 267.17 259.129 266.918 258.942C266.769 258.821 266.643 258.732 266.54 258.676C266.447 258.611 266.353 258.578 266.26 258.578C266.064 258.578 265.901 258.653 265.77 258.802C265.649 258.951 265.583 259.157 265.574 259.418H264.636C264.645 258.849 264.785 258.396 265.056 258.06C265.336 257.715 265.7 257.542 266.148 257.542C266.381 257.542 266.582 257.589 266.75 257.682C266.927 257.775 267.142 257.915 267.394 258.102C267.543 258.223 267.665 258.317 267.758 258.382C267.861 258.438 267.959 258.466 268.052 258.466C268.248 258.466 268.407 258.396 268.528 258.256C268.659 258.116 268.729 257.92 268.738 257.668H269.676C269.657 258.219 269.513 258.662 269.242 258.998C268.971 259.334 268.612 259.502 268.164 259.502ZM276.078 268.098C275.322 268.098 274.641 267.935 274.034 267.608C273.428 267.281 272.952 266.829 272.606 266.25C272.27 265.662 272.102 264.999 272.102 264.262C272.102 263.525 272.27 262.867 272.606 262.288C272.952 261.709 273.428 261.257 274.034 260.93C274.641 260.603 275.322 260.44 276.078 260.44C276.844 260.44 277.53 260.603 278.136 260.93C278.743 261.257 279.214 261.709 279.55 262.288C279.896 262.867 280.068 263.525 280.068 264.262C280.068 264.999 279.896 265.662 279.55 266.25C279.214 266.829 278.743 267.281 278.136 267.608C277.53 267.935 276.844 268.098 276.078 268.098ZM276.078 266.6C276.722 266.6 277.254 266.385 277.674 265.956C278.094 265.527 278.304 264.962 278.304 264.262C278.304 263.562 278.094 262.997 277.674 262.568C277.254 262.139 276.722 261.924 276.078 261.924C275.434 261.924 274.902 262.139 274.482 262.568C274.072 262.997 273.866 263.562 273.866 264.262C273.866 264.962 274.072 265.527 274.482 265.956C274.902 266.385 275.434 266.6 276.078 266.6Z" fill="#FE9800"/>
<path d="M114.004 296.2V306H112.184V297.726H110.112V296.2H114.004ZM120.4 299.952C121.044 299.952 121.623 300.078 122.136 300.33C122.649 300.573 123.051 300.923 123.34 301.38C123.629 301.837 123.774 302.365 123.774 302.962C123.774 303.597 123.615 304.157 123.298 304.642C122.981 305.118 122.551 305.487 122.01 305.748C121.469 306.009 120.862 306.14 120.19 306.14C118.846 306.14 117.801 305.72 117.054 304.88C116.317 304.04 115.948 302.836 115.948 301.268C115.948 300.167 116.149 299.229 116.55 298.454C116.951 297.67 117.511 297.077 118.23 296.676C118.958 296.265 119.798 296.06 120.75 296.06C121.254 296.06 121.725 296.116 122.164 296.228C122.612 296.331 122.999 296.485 123.326 296.69L122.654 298.062C122.169 297.745 121.548 297.586 120.792 297.586C119.849 297.586 119.112 297.875 118.58 298.454C118.048 299.033 117.782 299.868 117.782 300.96V300.974C118.071 300.638 118.44 300.386 118.888 300.218C119.336 300.041 119.84 299.952 120.4 299.952ZM120.092 304.712C120.661 304.712 121.123 304.563 121.478 304.264C121.833 303.956 122.01 303.55 122.01 303.046C122.01 302.533 121.833 302.127 121.478 301.828C121.123 301.529 120.647 301.38 120.05 301.38C119.462 301.38 118.981 301.539 118.608 301.856C118.244 302.173 118.062 302.575 118.062 303.06C118.062 303.536 118.239 303.933 118.594 304.25C118.958 304.558 119.457 304.712 120.092 304.712ZM126.636 301.478C125.936 301.478 125.371 301.231 124.942 300.736C124.513 300.241 124.298 299.593 124.298 298.79C124.298 297.987 124.513 297.339 124.942 296.844C125.371 296.349 125.936 296.102 126.636 296.102C127.336 296.102 127.901 296.349 128.33 296.844C128.769 297.329 128.988 297.978 128.988 298.79C128.988 299.602 128.769 300.255 128.33 300.75C127.901 301.235 127.336 301.478 126.636 301.478ZM132.516 296.2H133.888L127.196 306H125.824L132.516 296.2ZM126.636 300.498C127.019 300.498 127.313 300.349 127.518 300.05C127.733 299.751 127.84 299.331 127.84 298.79C127.84 298.249 127.733 297.829 127.518 297.53C127.313 297.231 127.019 297.082 126.636 297.082C126.272 297.082 125.978 297.236 125.754 297.544C125.539 297.843 125.432 298.258 125.432 298.79C125.432 299.322 125.539 299.742 125.754 300.05C125.978 300.349 126.272 300.498 126.636 300.498ZM133.062 306.098C132.362 306.098 131.797 305.851 131.368 305.356C130.939 304.861 130.724 304.213 130.724 303.41C130.724 302.607 130.939 301.959 131.368 301.464C131.797 300.969 132.362 300.722 133.062 300.722C133.762 300.722 134.327 300.969 134.756 301.464C135.195 301.959 135.414 302.607 135.414 303.41C135.414 304.213 135.195 304.861 134.756 305.356C134.327 305.851 133.762 306.098 133.062 306.098ZM133.062 305.118C133.435 305.118 133.729 304.969 133.944 304.67C134.159 304.362 134.266 303.942 134.266 303.41C134.266 302.878 134.159 302.463 133.944 302.164C133.729 301.856 133.435 301.702 133.062 301.702C132.689 301.702 132.395 301.851 132.18 302.15C131.965 302.449 131.858 302.869 131.858 303.41C131.858 303.951 131.965 304.371 132.18 304.67C132.395 304.969 132.689 305.118 133.062 305.118ZM140.52 301.38H144.37V302.836H140.52V301.38ZM154.354 296.2C155.203 296.2 155.941 296.34 156.566 296.62C157.201 296.9 157.686 297.301 158.022 297.824C158.358 298.347 158.526 298.967 158.526 299.686C158.526 300.395 158.358 301.016 158.022 301.548C157.686 302.071 157.201 302.472 156.566 302.752C155.941 303.032 155.203 303.172 154.354 303.172H152.142V306H150.322V296.2H154.354ZM154.27 301.632C155.063 301.632 155.665 301.464 156.076 301.128C156.487 300.792 156.692 300.311 156.692 299.686C156.692 299.061 156.487 298.58 156.076 298.244C155.665 297.908 155.063 297.74 154.27 297.74H152.142V301.632H154.27ZM167.176 302.304C167.176 302.425 167.167 302.598 167.148 302.822H161.282C161.385 303.373 161.651 303.811 162.08 304.138C162.519 304.455 163.06 304.614 163.704 304.614C164.525 304.614 165.202 304.343 165.734 303.802L166.672 304.88C166.336 305.281 165.911 305.585 165.398 305.79C164.885 305.995 164.306 306.098 163.662 306.098C162.841 306.098 162.117 305.935 161.492 305.608C160.867 305.281 160.381 304.829 160.036 304.25C159.7 303.662 159.532 302.999 159.532 302.262C159.532 301.534 159.695 300.881 160.022 300.302C160.358 299.714 160.82 299.257 161.408 298.93C161.996 298.603 162.659 298.44 163.396 298.44C164.124 298.44 164.773 298.603 165.342 298.93C165.921 299.247 166.369 299.7 166.686 300.288C167.013 300.867 167.176 301.539 167.176 302.304ZM163.396 299.84C162.836 299.84 162.36 300.008 161.968 300.344C161.585 300.671 161.352 301.109 161.268 301.66H165.51C165.435 301.119 165.207 300.68 164.824 300.344C164.441 300.008 163.965 299.84 163.396 299.84ZM170.523 299.616C171.027 298.832 171.914 298.44 173.183 298.44V300.106C173.034 300.078 172.898 300.064 172.777 300.064C172.096 300.064 171.564 300.265 171.181 300.666C170.798 301.058 170.607 301.627 170.607 302.374V306H168.857V298.524H170.523V299.616ZM174.668 298.524H176.418V306H174.668V298.524ZM175.55 297.292C175.232 297.292 174.966 297.194 174.752 296.998C174.537 296.793 174.43 296.541 174.43 296.242C174.43 295.943 174.537 295.696 174.752 295.5C174.966 295.295 175.232 295.192 175.55 295.192C175.867 295.192 176.133 295.29 176.348 295.486C176.562 295.673 176.67 295.911 176.67 296.2C176.67 296.508 176.562 296.769 176.348 296.984C176.142 297.189 175.876 297.292 175.55 297.292ZM186.134 298.524V304.866C186.134 307.498 184.79 308.814 182.102 308.814C181.384 308.814 180.702 308.721 180.058 308.534C179.414 308.357 178.882 308.095 178.462 307.75L179.246 306.434C179.573 306.705 179.984 306.919 180.478 307.078C180.982 307.246 181.491 307.33 182.004 307.33C182.826 307.33 183.428 307.143 183.81 306.77C184.193 306.397 184.384 305.827 184.384 305.062V304.67C184.086 304.997 183.722 305.244 183.292 305.412C182.863 305.58 182.392 305.664 181.878 305.664C181.169 305.664 180.525 305.515 179.946 305.216C179.377 304.908 178.924 304.479 178.588 303.928C178.262 303.377 178.098 302.747 178.098 302.038C178.098 301.329 178.262 300.703 178.588 300.162C178.924 299.611 179.377 299.187 179.946 298.888C180.525 298.589 181.169 298.44 181.878 298.44C182.42 298.44 182.91 298.529 183.348 298.706C183.796 298.883 184.17 299.154 184.468 299.518V298.524H186.134ZM182.144 304.18C182.807 304.18 183.348 303.984 183.768 303.592C184.198 303.191 184.412 302.673 184.412 302.038C184.412 301.413 184.198 300.904 183.768 300.512C183.348 300.12 182.807 299.924 182.144 299.924C181.472 299.924 180.922 300.12 180.492 300.512C180.072 300.904 179.862 301.413 179.862 302.038C179.862 302.673 180.072 303.191 180.492 303.592C180.922 303.984 181.472 304.18 182.144 304.18ZM191.795 306.098C191.039 306.098 190.358 305.935 189.751 305.608C189.144 305.281 188.668 304.829 188.323 304.25C187.987 303.662 187.819 302.999 187.819 302.262C187.819 301.525 187.987 300.867 188.323 300.288C188.668 299.709 189.144 299.257 189.751 298.93C190.358 298.603 191.039 298.44 191.795 298.44C192.56 298.44 193.246 298.603 193.853 298.93C194.46 299.257 194.931 299.709 195.267 300.288C195.612 300.867 195.785 301.525 195.785 302.262C195.785 302.999 195.612 303.662 195.267 304.25C194.931 304.829 194.46 305.281 193.853 305.608C193.246 305.935 192.56 306.098 191.795 306.098ZM191.795 304.6C192.439 304.6 192.971 304.385 193.391 303.956C193.811 303.527 194.021 302.962 194.021 302.262C194.021 301.562 193.811 300.997 193.391 300.568C192.971 300.139 192.439 299.924 191.795 299.924C191.151 299.924 190.619 300.139 190.199 300.568C189.788 300.997 189.583 301.562 189.583 302.262C189.583 302.962 189.788 303.527 190.199 303.956C190.619 304.385 191.151 304.6 191.795 304.6Z" fill="#EA6367"/>
</svg>
