<svg width="15" height="17" viewBox="0 0 15 17" fill="none" xmlns="http://www.w3.org/2000/svg">
<path d="M15 0H12.748V2.88567C11.408 1.83042 9.71837 1.20106 7.88203 1.20106C3.5289 1.20106 0 4.73777 0 9.10053C0 13.4633 3.5289 17 7.88203 17C10.3035 17 12.4699 15.9057 13.9158 14.1835L12.0924 12.8465C11.0611 14.01 9.55699 14.743 7.88203 14.743C4.77266 14.743 2.25201 12.2168 2.25201 9.10053C2.25201 5.98427 4.77266 3.45805 7.88203 3.45805C9.10582 3.45805 10.2384 3.84938 11.162 4.51398L8.24398 4.51398V6.77098H15V0Z" fill="white"/>
</svg>
