<svg width="20" height="20" viewBox="0 0 20 20" fill="none" xmlns="http://www.w3.org/2000/svg">
<path d="M10.396 19.96H10.373H10.362C5.02444 19.96 15.6057 19.96 10.396 19.96ZM19.97 8H17.97C17.8769 5.4139 16.6337 3.00451 14.58 1.43L16 0C17.1961 0.930478 18.1625 2.12311 18.825 3.486C19.51 4.89703 19.8996 6.43308 19.97 8ZM2 8H0C0.0703571 6.43307 0.459985 4.89702 1.145 3.486C1.80746 2.12311 2.77395 0.930478 3.97 0L5.39 1.43C3.33611 3.00432 2.09286 5.41382 2 8Z" fill="white"/>
<path d="M10 20C8.89543 20 8 19.1046 8 18H12C12 19.1046 11.1046 20 10 20ZM18 17H2V15L4 14V8.5C4 5.038 5.421 2.793 8 2.18V0H12V2.18C14.579 2.792 16 5.036 16 8.5V14L18 15V17ZM10 3.75C8.77967 3.6712 7.60278 4.21728 6.875 5.2C6.25255 6.18456 5.94714 7.33638 6 8.5V15H14V8.5C14.0528 7.33639 13.7474 6.18458 13.125 5.2C12.3972 4.21728 11.2203 3.6712 10 3.75Z" fill="white"/>
</svg>
