<svg width="31" height="21" viewBox="0 0 31 21" fill="none" xmlns="http://www.w3.org/2000/svg">
<path d="M22.475 10.5C24.614 10.5 26.3345 8.82 26.3345 6.75C26.3345 4.68 24.614 3 22.475 3C20.336 3 18.6 4.68 18.6 6.75C18.6 8.82 20.336 10.5 22.475 10.5ZM10.85 9C13.423 9 15.4845 6.99 15.4845 4.5C15.4845 2.01 13.423 0 10.85 0C8.277 0 6.2 2.01 6.2 4.5C6.2 6.99 8.277 9 10.85 9ZM22.475 13.5C19.6385 13.5 13.95 14.88 13.95 17.625V19.5C13.95 20.325 14.6475 21 15.5 21H29.45C30.3025 21 31 20.325 31 19.5V17.625C31 14.88 25.3115 13.5 22.475 13.5ZM10.85 12C7.2385 12 0 13.755 0 17.25V19.5C0 20.325 0.6975 21 1.55 21H10.85V17.625C10.85 16.35 11.3615 14.115 14.5235 12.42C13.175 12.15 11.873 12 10.85 12Z" fill="#68CAA0"/>
</svg>
