<svg width="13" height="20" viewBox="0 0 13 20" fill="none" xmlns="http://www.w3.org/2000/svg">
<path d="M11.1429 20H1.85714C0.831471 20 0 19.186 0 18.1818V1.81818C0 0.814028 0.831471 0 1.85714 0H11.1429C12.1685 0 13 0.814028 13 1.81818V18.1818C13 19.186 12.1685 20 11.1429 20ZM1.85714 1.81818V18.1818H11.1429V1.81818H1.85714ZM6.5 17.2727C5.98716 17.2727 5.57143 16.8657 5.57143 16.3636C5.57143 15.8616 5.98716 15.4545 6.5 15.4545C7.01284 15.4545 7.42857 15.8616 7.42857 16.3636C7.42857 16.8657 7.01284 17.2727 6.5 17.2727Z" fill="white"/>
</svg>
