<svg width="150" height="34" viewBox="0 0 150 34" fill="none" xmlns="http://www.w3.org/2000/svg">
<rect width="150" height="34" fill="white"/>
<path d="M16.016 16.976H19.46V24.788C18.452 25.5907 17.276 26.2067 15.932 26.636C14.588 27.0653 13.2067 27.28 11.788 27.28C9.79067 27.28 7.98933 26.8507 6.384 25.992C4.77867 25.1147 3.51867 23.9107 2.604 22.38C1.68933 20.8493 1.232 19.1227 1.232 17.2C1.232 15.2773 1.68933 13.5507 2.604 12.02C3.51867 10.4893 4.77867 9.29467 6.384 8.436C8.008 7.55867 9.828 7.12 11.844 7.12C13.4867 7.12 14.98 7.39067 16.324 7.932C17.668 8.47333 18.7973 9.26667 19.712 10.312L17.416 12.552C15.9227 11.0587 14.1213 10.312 12.012 10.312C10.6307 10.312 9.39867 10.6013 8.316 11.18C7.252 11.7587 6.412 12.5707 5.796 13.616C5.19867 14.6613 4.9 15.856 4.9 17.2C4.9 18.5067 5.19867 19.6827 5.796 20.728C6.412 21.7733 7.252 22.5947 8.316 23.192C9.39867 23.7893 10.6213 24.088 11.984 24.088C13.5147 24.088 14.8587 23.752 16.016 23.08V16.976ZM33.4169 27.28C31.4196 27.28 29.6182 26.8507 28.0129 25.992C26.4076 25.1147 25.1476 23.9107 24.2329 22.38C23.3182 20.8307 22.8609 19.104 22.8609 17.2C22.8609 15.296 23.3182 13.5787 24.2329 12.048C25.1476 10.4987 26.4076 9.29467 28.0129 8.436C29.6182 7.55867 31.4196 7.12 33.4169 7.12C35.4142 7.12 37.2156 7.55867 38.8209 8.436C40.4262 9.29467 41.6862 10.4893 42.6009 12.02C43.5156 13.5507 43.9729 15.2773 43.9729 17.2C43.9729 19.1227 43.5156 20.8493 42.6009 22.38C41.6862 23.9107 40.4262 25.1147 38.8209 25.992C37.2156 26.8507 35.4142 27.28 33.4169 27.28ZM33.4169 24.088C34.7236 24.088 35.8996 23.7987 36.9449 23.22C37.9902 22.6227 38.8116 21.8013 39.4089 20.756C40.0062 19.692 40.3049 18.5067 40.3049 17.2C40.3049 15.8933 40.0062 14.7173 39.4089 13.672C38.8116 12.608 37.9902 11.7867 36.9449 11.208C35.8996 10.6107 34.7236 10.312 33.4169 10.312C32.1102 10.312 30.9342 10.6107 29.8889 11.208C28.8436 11.7867 28.0222 12.608 27.4249 13.672C26.8276 14.7173 26.5289 15.8933 26.5289 17.2C26.5289 18.5067 26.8276 19.692 27.4249 20.756C28.0222 21.8013 28.8436 22.6227 29.8889 23.22C30.9342 23.7987 32.1102 24.088 33.4169 24.088ZM56.9872 27.28C54.9899 27.28 53.1886 26.8507 51.5832 25.992C49.9779 25.1147 48.7179 23.9107 47.8032 22.38C46.8886 20.8307 46.4312 19.104 46.4312 17.2C46.4312 15.296 46.8886 13.5787 47.8032 12.048C48.7179 10.4987 49.9779 9.29467 51.5832 8.436C53.1886 7.55867 54.9899 7.12 56.9872 7.12C58.9846 7.12 60.7859 7.55867 62.3912 8.436C63.9966 9.29467 65.2566 10.4893 66.1712 12.02C67.0859 13.5507 67.5432 15.2773 67.5432 17.2C67.5432 19.1227 67.0859 20.8493 66.1712 22.38C65.2566 23.9107 63.9966 25.1147 62.3912 25.992C60.7859 26.8507 58.9846 27.28 56.9872 27.28ZM56.9872 24.088C58.2939 24.088 59.4699 23.7987 60.5152 23.22C61.5606 22.6227 62.3819 21.8013 62.9792 20.756C63.5766 19.692 63.8752 18.5067 63.8752 17.2C63.8752 15.8933 63.5766 14.7173 62.9792 13.672C62.3819 12.608 61.5606 11.7867 60.5152 11.208C59.4699 10.6107 58.2939 10.312 56.9872 10.312C55.6806 10.312 54.5046 10.6107 53.4592 11.208C52.4139 11.7867 51.5926 12.608 50.9952 13.672C50.3979 14.7173 50.0992 15.8933 50.0992 17.2C50.0992 18.5067 50.3979 19.692 50.9952 20.756C51.5926 21.8013 52.4139 22.6227 53.4592 23.22C54.5046 23.7987 55.6806 24.088 56.9872 24.088ZM71.4015 7.4H79.9695C82.0602 7.4 83.9175 7.81067 85.5415 8.632C87.1655 9.43467 88.4255 10.5827 89.3215 12.076C90.2175 13.5507 90.6655 15.2587 90.6655 17.2C90.6655 19.1413 90.2175 20.8587 89.3215 22.352C88.4255 23.8267 87.1655 24.9747 85.5415 25.796C83.9175 26.5987 82.0602 27 79.9695 27H71.4015V7.4ZM79.8015 23.92C81.2389 23.92 82.4989 23.6493 83.5815 23.108C84.6829 22.548 85.5229 21.764 86.1015 20.756C86.6989 19.7293 86.9975 18.544 86.9975 17.2C86.9975 15.856 86.6989 14.68 86.1015 13.672C85.5229 12.6453 84.6829 11.8613 83.5815 11.32C82.4989 10.76 81.2389 10.48 79.8015 10.48H75.0415V23.92H79.8015Z" fill="#353535"/>
<path d="M16.016 16.976H19.46V24.788C18.452 25.5907 17.276 26.2067 15.932 26.636C14.588 27.0653 13.2067 27.28 11.788 27.28C9.79067 27.28 7.98933 26.8507 6.384 25.992C4.77867 25.1147 3.51867 23.9107 2.604 22.38C1.68933 20.8493 1.232 19.1227 1.232 17.2C1.232 15.2773 1.68933 13.5507 2.604 12.02C3.51867 10.4893 4.77867 9.29467 6.384 8.436C8.008 7.55867 9.828 7.12 11.844 7.12C13.4867 7.12 14.98 7.39067 16.324 7.932C17.668 8.47333 18.7973 9.26667 19.712 10.312L17.416 12.552C15.9227 11.0587 14.1213 10.312 12.012 10.312C10.6307 10.312 9.39867 10.6013 8.316 11.18C7.252 11.7587 6.412 12.5707 5.796 13.616C5.19867 14.6613 4.9 15.856 4.9 17.2C4.9 18.5067 5.19867 19.6827 5.796 20.728C6.412 21.7733 7.252 22.5947 8.316 23.192C9.39867 23.7893 10.6213 24.088 11.984 24.088C13.5147 24.088 14.8587 23.752 16.016 23.08V16.976ZM33.4169 27.28C31.4196 27.28 29.6182 26.8507 28.0129 25.992C26.4076 25.1147 25.1476 23.9107 24.2329 22.38C23.3182 20.8307 22.8609 19.104 22.8609 17.2C22.8609 15.296 23.3182 13.5787 24.2329 12.048C25.1476 10.4987 26.4076 9.29467 28.0129 8.436C29.6182 7.55867 31.4196 7.12 33.4169 7.12C35.4142 7.12 37.2156 7.55867 38.8209 8.436C40.4262 9.29467 41.6862 10.4893 42.6009 12.02C43.5156 13.5507 43.9729 15.2773 43.9729 17.2C43.9729 19.1227 43.5156 20.8493 42.6009 22.38C41.6862 23.9107 40.4262 25.1147 38.8209 25.992C37.2156 26.8507 35.4142 27.28 33.4169 27.28ZM33.4169 24.088C34.7236 24.088 35.8996 23.7987 36.9449 23.22C37.9902 22.6227 38.8116 21.8013 39.4089 20.756C40.0062 19.692 40.3049 18.5067 40.3049 17.2C40.3049 15.8933 40.0062 14.7173 39.4089 13.672C38.8116 12.608 37.9902 11.7867 36.9449 11.208C35.8996 10.6107 34.7236 10.312 33.4169 10.312C32.1102 10.312 30.9342 10.6107 29.8889 11.208C28.8436 11.7867 28.0222 12.608 27.4249 13.672C26.8276 14.7173 26.5289 15.8933 26.5289 17.2C26.5289 18.5067 26.8276 19.692 27.4249 20.756C28.0222 21.8013 28.8436 22.6227 29.8889 23.22C30.9342 23.7987 32.1102 24.088 33.4169 24.088ZM56.9872 27.28C54.9899 27.28 53.1886 26.8507 51.5832 25.992C49.9779 25.1147 48.7179 23.9107 47.8032 22.38C46.8886 20.8307 46.4312 19.104 46.4312 17.2C46.4312 15.296 46.8886 13.5787 47.8032 12.048C48.7179 10.4987 49.9779 9.29467 51.5832 8.436C53.1886 7.55867 54.9899 7.12 56.9872 7.12C58.9846 7.12 60.7859 7.55867 62.3912 8.436C63.9966 9.29467 65.2566 10.4893 66.1712 12.02C67.0859 13.5507 67.5432 15.2773 67.5432 17.2C67.5432 19.1227 67.0859 20.8493 66.1712 22.38C65.2566 23.9107 63.9966 25.1147 62.3912 25.992C60.7859 26.8507 58.9846 27.28 56.9872 27.28ZM56.9872 24.088C58.2939 24.088 59.4699 23.7987 60.5152 23.22C61.5606 22.6227 62.3819 21.8013 62.9792 20.756C63.5766 19.692 63.8752 18.5067 63.8752 17.2C63.8752 15.8933 63.5766 14.7173 62.9792 13.672C62.3819 12.608 61.5606 11.7867 60.5152 11.208C59.4699 10.6107 58.2939 10.312 56.9872 10.312C55.6806 10.312 54.5046 10.6107 53.4592 11.208C52.4139 11.7867 51.5926 12.608 50.9952 13.672C50.3979 14.7173 50.0992 15.8933 50.0992 17.2C50.0992 18.5067 50.3979 19.692 50.9952 20.756C51.5926 21.8013 52.4139 22.6227 53.4592 23.22C54.5046 23.7987 55.6806 24.088 56.9872 24.088ZM71.4015 7.4H79.9695C82.0602 7.4 83.9175 7.81067 85.5415 8.632C87.1655 9.43467 88.4255 10.5827 89.3215 12.076C90.2175 13.5507 90.6655 15.2587 90.6655 17.2C90.6655 19.1413 90.2175 20.8587 89.3215 22.352C88.4255 23.8267 87.1655 24.9747 85.5415 25.796C83.9175 26.5987 82.0602 27 79.9695 27H71.4015V7.4ZM79.8015 23.92C81.2389 23.92 82.4989 23.6493 83.5815 23.108C84.6829 22.548 85.5229 21.764 86.1015 20.756C86.6989 19.7293 86.9975 18.544 86.9975 17.2C86.9975 15.856 86.6989 14.68 86.1015 13.672C85.5229 12.6453 84.6829 11.8613 83.5815 11.32C82.4989 10.76 81.2389 10.48 79.8015 10.48H75.0415V23.92H79.8015Z" fill="url(#paint0_linear_991_11)"/>
<path d="M109.794 22.016V27H93.4983V7.4H109.43V12.384H99.9943V14.68H108.282V19.44H99.9943V22.016H109.794ZM123.849 19.888V27H117.241V19.804L109.849 7.4H116.821L120.825 14.176L124.857 7.4H131.241L123.849 19.888ZM148.376 22.016V27H132.08V7.4H148.012V12.384H138.576V14.68H146.864V19.44H138.576V22.016H148.376Z" fill="#353535"/>
<defs>
<linearGradient id="paint0_linear_991_11" x1="-5.58793e-07" y1="17" x2="150" y2="17" gradientUnits="userSpaceOnUse">
<stop stop-color="#FF500F"/>
<stop offset="1" stop-color="#FF8700"/>
</linearGradient>
</defs>
</svg>
