<svg width="150" height="34" viewBox="0 0 150 34" fill="none" xmlns="http://www.w3.org/2000/svg">
<path d="M16.016 16.976H19.46V24.788C18.452 25.5907 17.276 26.2067 15.932 26.636C14.588 27.0653 13.2067 27.28 11.788 27.28C9.79067 27.28 7.98933 26.8507 6.384 25.992C4.77867 25.1147 3.51867 23.9107 2.604 22.38C1.68933 20.8493 1.232 19.1227 1.232 17.2C1.232 15.2773 1.68933 13.5507 2.604 12.02C3.51867 10.4893 4.77867 9.29467 6.384 8.436C8.008 7.55867 9.828 7.12 11.844 7.12C13.4867 7.12 14.98 7.39067 16.324 7.932C17.668 8.47333 18.7973 9.26667 19.712 10.312L17.416 12.552C15.9227 11.0587 14.1213 10.312 12.012 10.312C10.6307 10.312 9.39867 10.6013 8.316 11.18C7.252 11.7587 6.412 12.5707 5.796 13.616C5.19867 14.6613 4.9 15.856 4.9 17.2C4.9 18.5067 5.19867 19.6827 5.796 20.728C6.412 21.7733 7.252 22.5947 8.316 23.192C9.39867 23.7893 10.6213 24.088 11.984 24.088C13.5147 24.088 14.8587 23.752 16.016 23.08V16.976ZM56.6318 27.28C54.6344 27.28 52.8331 26.8507 51.2278 25.992C49.6224 25.1147 48.3624 23.9107 47.4478 22.38C46.5331 20.8307 46.0758 19.104 46.0758 17.2C46.0758 15.296 46.5331 13.5787 47.4478 12.048C48.3624 10.4987 49.6224 9.29467 51.2278 8.436C52.8331 7.55867 54.6344 7.12 56.6318 7.12C58.6291 7.12 60.4304 7.55867 62.0358 8.436C63.6411 9.29467 64.9011 10.4893 65.8158 12.02C66.7304 13.5507 67.1878 15.2773 67.1878 17.2C67.1878 19.1227 66.7304 20.8493 65.8158 22.38C64.9011 23.9107 63.6411 25.1147 62.0358 25.992C60.4304 26.8507 58.6291 27.28 56.6318 27.28ZM56.6318 24.088C57.9384 24.088 59.1144 23.7987 60.1598 23.22C61.2051 22.6227 62.0264 21.8013 62.6238 20.756C63.2211 19.692 63.5198 18.5067 63.5198 17.2C63.5198 15.8933 63.2211 14.7173 62.6238 13.672C62.0264 12.608 61.2051 11.7867 60.1598 11.208C59.1144 10.6107 57.9384 10.312 56.6318 10.312C55.3251 10.312 54.1491 10.6107 53.1038 11.208C52.0584 11.7867 51.2371 12.608 50.6398 13.672C50.0424 14.7173 49.7438 15.8933 49.7438 17.2C49.7438 18.5067 50.0424 19.692 50.6398 20.756C51.2371 21.8013 52.0584 22.6227 53.1038 23.22C54.1491 23.7987 55.3251 24.088 56.6318 24.088ZM71.0461 7.4H79.6141C81.7047 7.4 83.5621 7.81067 85.1861 8.632C86.8101 9.43467 88.0701 10.5827 88.9661 12.076C89.8621 13.5507 90.3101 15.2587 90.3101 17.2C90.3101 19.1413 89.8621 20.8587 88.9661 22.352C88.0701 23.8267 86.8101 24.9747 85.1861 25.796C83.5621 26.5987 81.7047 27 79.6141 27H71.0461V7.4ZM79.4461 23.92C80.8834 23.92 82.1434 23.6493 83.2261 23.108C84.3274 22.548 85.1674 21.764 85.7461 20.756C86.3434 19.7293 86.6421 18.544 86.6421 17.2C86.6421 15.856 86.3434 14.68 85.7461 13.672C85.1674 12.6453 84.3274 11.8613 83.2261 11.32C82.1434 10.76 80.8834 10.48 79.4461 10.48H74.6861V23.92H79.4461Z" fill="#353535"/>
<path d="M16.016 16.976H19.46V24.788C18.452 25.5907 17.276 26.2067 15.932 26.636C14.588 27.0653 13.2067 27.28 11.788 27.28C9.79067 27.28 7.98933 26.8507 6.384 25.992C4.77867 25.1147 3.51867 23.9107 2.604 22.38C1.68933 20.8493 1.232 19.1227 1.232 17.2C1.232 15.2773 1.68933 13.5507 2.604 12.02C3.51867 10.4893 4.77867 9.29467 6.384 8.436C8.008 7.55867 9.828 7.12 11.844 7.12C13.4867 7.12 14.98 7.39067 16.324 7.932C17.668 8.47333 18.7973 9.26667 19.712 10.312L17.416 12.552C15.9227 11.0587 14.1213 10.312 12.012 10.312C10.6307 10.312 9.39867 10.6013 8.316 11.18C7.252 11.7587 6.412 12.5707 5.796 13.616C5.19867 14.6613 4.9 15.856 4.9 17.2C4.9 18.5067 5.19867 19.6827 5.796 20.728C6.412 21.7733 7.252 22.5947 8.316 23.192C9.39867 23.7893 10.6213 24.088 11.984 24.088C13.5147 24.088 14.8587 23.752 16.016 23.08V16.976ZM56.6318 27.28C54.6344 27.28 52.8331 26.8507 51.2278 25.992C49.6224 25.1147 48.3624 23.9107 47.4478 22.38C46.5331 20.8307 46.0758 19.104 46.0758 17.2C46.0758 15.296 46.5331 13.5787 47.4478 12.048C48.3624 10.4987 49.6224 9.29467 51.2278 8.436C52.8331 7.55867 54.6344 7.12 56.6318 7.12C58.6291 7.12 60.4304 7.55867 62.0358 8.436C63.6411 9.29467 64.9011 10.4893 65.8158 12.02C66.7304 13.5507 67.1878 15.2773 67.1878 17.2C67.1878 19.1227 66.7304 20.8493 65.8158 22.38C64.9011 23.9107 63.6411 25.1147 62.0358 25.992C60.4304 26.8507 58.6291 27.28 56.6318 27.28ZM56.6318 24.088C57.9384 24.088 59.1144 23.7987 60.1598 23.22C61.2051 22.6227 62.0264 21.8013 62.6238 20.756C63.2211 19.692 63.5198 18.5067 63.5198 17.2C63.5198 15.8933 63.2211 14.7173 62.6238 13.672C62.0264 12.608 61.2051 11.7867 60.1598 11.208C59.1144 10.6107 57.9384 10.312 56.6318 10.312C55.3251 10.312 54.1491 10.6107 53.1038 11.208C52.0584 11.7867 51.2371 12.608 50.6398 13.672C50.0424 14.7173 49.7438 15.8933 49.7438 17.2C49.7438 18.5067 50.0424 19.692 50.6398 20.756C51.2371 21.8013 52.0584 22.6227 53.1038 23.22C54.1491 23.7987 55.3251 24.088 56.6318 24.088ZM71.0461 7.4H79.6141C81.7047 7.4 83.5621 7.81067 85.1861 8.632C86.8101 9.43467 88.0701 10.5827 88.9661 12.076C89.8621 13.5507 90.3101 15.2587 90.3101 17.2C90.3101 19.1413 89.8621 20.8587 88.9661 22.352C88.0701 23.8267 86.8101 24.9747 85.1861 25.796C83.5621 26.5987 81.7047 27 79.6141 27H71.0461V7.4ZM79.4461 23.92C80.8834 23.92 82.1434 23.6493 83.2261 23.108C84.3274 22.548 85.1674 21.764 85.7461 20.756C86.3434 19.7293 86.6421 18.544 86.6421 17.2C86.6421 15.856 86.3434 14.68 85.7461 13.672C85.1674 12.6453 84.3274 11.8613 83.2261 11.32C82.1434 10.76 80.8834 10.48 79.4461 10.48H74.6861V23.92H79.4461Z" fill="url(#paint0_linear_896_29)"/>
<path d="M109.439 22.016V27H93.1429V7.4H109.075V12.384H99.6389V14.68H107.927V19.44H99.6389V22.016H109.439ZM123.494 19.888V27H116.886V19.804L109.494 7.4H116.466L120.47 14.176L124.502 7.4H130.886L123.494 19.888ZM148.021 22.016V27H131.725V7.4H147.657V12.384H138.221V14.68H146.509V19.44H138.221V22.016H148.021Z" fill="#353535"/>
<g opacity="0.836">
<path fill-rule="evenodd" clip-rule="evenodd" d="M44.911 16.6482C45.0445 16.958 45 17.1793 44.9555 17.4449C44.6747 18.0965 44.2593 18.6719 43.7092 19.1709C42.8515 19.8926 41.9317 20.527 40.9497 21.074C40.864 22.5411 40.6414 23.9868 40.2821 25.4113C39.9669 26.7713 39.1212 27.2581 37.7451 26.8718C36.2234 26.7344 34.8287 26.2476 33.5612 25.4113C31.7404 26.609 29.7524 27.0664 27.597 26.7833C27.3333 26.5809 27.1405 26.3301 27.0184 26.0309C26.4666 24.5147 26.2144 22.9509 26.2618 21.3396C24.4801 20.557 23.1003 19.3178 22.1224 17.6219C21.9335 17.1659 21.9632 16.7233 22.2114 16.2942C23.3044 14.9268 24.6248 13.8351 26.1727 13.0191C26.1903 11.4245 26.4128 9.86076 26.8404 8.32774C27.1691 7.5076 27.7774 7.06502 28.6652 7C30.4188 7.18287 32.036 7.74347 33.5167 8.6818C35.0108 7.77838 36.628 7.21778 38.3682 7C39.415 7.11468 40.0827 7.67528 40.3711 8.6818C40.6869 10.081 40.8797 11.4973 40.9497 12.9306C42.6613 13.7482 43.9521 15.0464 44.911 16.6482ZM28.3982 7.79664C29.9646 7.89665 31.4186 8.35398 32.7601 9.16864C30.5002 10.885 28.7643 13.0241 27.5525 15.586C27.2735 14.8667 27.1697 14.129 27.241 13.3731C27.7157 13.1666 28.1905 12.9601 28.6652 12.7535C28.8398 12.4209 29.0475 12.1111 29.2884 11.8241C28.5221 11.9503 27.7951 12.2011 27.1074 12.5765C26.9747 11.1101 27.1825 9.69386 27.7306 8.32774C27.9512 8.13837 28.1737 7.96134 28.3982 7.79664ZM37.7451 12.5765C38.3142 12.7106 38.878 12.8581 39.4364 13.0191C39.4646 12.7472 39.435 12.4816 39.3474 12.2224C38.4988 11.9157 37.6383 11.6501 36.7659 11.4258C36.045 10.5905 35.2438 9.85289 34.3624 9.2129C35.6814 8.33804 37.1355 7.88071 38.7243 7.8409C39.135 8.07243 39.4168 8.41174 39.5699 8.85883C40.0077 10.3034 40.245 11.7639 40.015 13.2404C40.015 13.3289 39.9705 13.4174 39.9705 13.5059C39.886 13.9951 39.797 14.4819 39.7034 14.9664C39.9045 15.2776 40.0825 15.6022 40.2376 15.9401C40.2992 15.8936 40.3437 15.8346 40.3711 15.7631C40.4979 15.0727 40.6463 14.3941 40.8162 13.7272C42.1375 14.4509 43.2353 15.4246 44.1098 16.6482C44.1843 16.9842 44.1547 17.3087 44.0208 17.6219C42.2843 19.5988 40.133 20.8823 37.567 21.4724C38.3382 20.3961 39.0058 19.2602 39.5699 18.0645C39.721 18.7493 39.8842 19.428 40.0595 20.1004C40.4197 20.0372 40.6274 19.8307 40.6826 19.4807C40.4774 18.2045 40.1362 16.9653 39.6589 15.7631C39.0745 14.6664 38.4365 13.6042 37.7451 12.5765ZM33.4722 9.65548C34.217 10.1156 34.8995 10.6614 35.5196 11.293C34.2513 11.1594 32.9753 11.1299 31.6918 11.2045C32.275 10.6658 32.8685 10.1494 33.4722 9.65548ZM32.493 11.9569C33.8104 11.9352 35.1159 12.0384 36.4098 12.2667C37.5847 13.6434 38.5046 15.1777 39.1693 16.8695C38.478 18.6287 37.5582 20.2515 36.4098 21.7379C35.9146 21.874 35.4101 21.9626 34.8965 22.0035C33.5583 22.0791 32.223 22.0497 30.8907 21.9149C29.823 20.6614 28.9476 19.2894 28.2647 17.7989C28.091 17.4277 28.002 17.0441 27.9976 16.6482C28.6645 15.0267 29.5695 13.5514 30.7126 12.2224C31.4248 11.9126 31.9589 11.9657 32.493 11.9569ZM26.1727 13.9042C26.2694 13.9149 26.3288 13.9739 26.3508 14.0813C26.5187 15.015 26.7561 15.9297 27.0629 16.8253C26.6226 18.0258 26.3704 19.265 26.3063 20.5429C24.7583 19.7266 23.5862 18.5464 22.7901 17.0023C23.2087 16.3639 23.7132 15.7886 24.3034 15.2762C24.9325 14.817 25.5556 14.3597 26.1727 13.9042ZM27.508 18.153C28.1164 19.3771 28.8286 20.5425 29.6444 21.6494C28.9489 21.5577 28.2664 21.3953 27.597 21.1625C27.5718 21.4526 27.6014 21.7329 27.686 22.0035C31.2967 23.0829 34.9167 23.1125 38.5462 22.092C39.0317 21.9262 39.5065 21.7344 39.9705 21.5166C40.0098 22.9682 39.7873 24.3844 39.3029 25.7654C39.2178 25.8609 39.1436 25.9641 39.0803 26.0752C37.4055 26.1988 35.8476 25.8299 34.4069 24.9687C34.9252 24.439 35.4742 23.9079 36.0537 23.3754C36.1724 23.2763 36.2169 23.1583 36.1872 23.0214C35.7233 23.1331 35.2633 23.2659 34.8075 23.4197C34.405 23.7757 33.9896 24.1151 33.5612 24.4376C32.9885 24.0602 32.4544 23.6323 31.9589 23.1542C31.6245 23.121 31.2982 23.1652 30.9797 23.2869C31.5187 23.8937 32.1122 24.4396 32.7601 24.9245C31.3134 25.817 29.7408 26.2006 28.0421 26.0752C27.8209 25.7975 27.6577 25.4877 27.5525 25.1458C26.9204 22.8152 26.9056 20.4843 27.508 18.153Z" fill="#FEFFFE"/>
<path fill-rule="evenodd" clip-rule="evenodd" d="M44.911 16.6482C45.0445 16.958 45 17.1793 44.9555 17.4449C44.6747 18.0965 44.2593 18.6719 43.7092 19.1709C42.8515 19.8926 41.9317 20.527 40.9497 21.074C40.864 22.5411 40.6414 23.9868 40.2821 25.4113C39.9669 26.7713 39.1212 27.2581 37.7451 26.8718C36.2234 26.7344 34.8287 26.2476 33.5612 25.4113C31.7404 26.609 29.7524 27.0664 27.597 26.7833C27.3333 26.5809 27.1405 26.3301 27.0184 26.0309C26.4666 24.5147 26.2144 22.9509 26.2618 21.3396C24.4801 20.557 23.1003 19.3178 22.1224 17.6219C21.9335 17.1659 21.9632 16.7233 22.2114 16.2942C23.3044 14.9268 24.6248 13.8351 26.1727 13.0191C26.1903 11.4245 26.4128 9.86076 26.8404 8.32774C27.1691 7.5076 27.7774 7.06502 28.6652 7C30.4188 7.18287 32.036 7.74347 33.5167 8.6818C35.0108 7.77838 36.628 7.21778 38.3682 7C39.415 7.11468 40.0827 7.67528 40.3711 8.6818C40.6869 10.081 40.8797 11.4973 40.9497 12.9306C42.6613 13.7482 43.9521 15.0464 44.911 16.6482ZM28.3982 7.79664C29.9646 7.89665 31.4186 8.35398 32.7601 9.16864C30.5002 10.885 28.7643 13.0241 27.5525 15.586C27.2735 14.8667 27.1697 14.129 27.241 13.3731C27.7157 13.1666 28.1905 12.9601 28.6652 12.7535C28.8398 12.4209 29.0475 12.1111 29.2884 11.8241C28.5221 11.9503 27.7951 12.2011 27.1074 12.5765C26.9747 11.1101 27.1825 9.69386 27.7306 8.32774C27.9512 8.13837 28.1737 7.96134 28.3982 7.79664ZM37.7451 12.5765C38.3142 12.7106 38.878 12.8581 39.4364 13.0191C39.4646 12.7472 39.435 12.4816 39.3474 12.2224C38.4988 11.9157 37.6383 11.6501 36.7659 11.4258C36.045 10.5905 35.2438 9.85289 34.3624 9.2129C35.6814 8.33804 37.1355 7.88071 38.7243 7.8409C39.135 8.07243 39.4168 8.41174 39.5699 8.85883C40.0077 10.3034 40.245 11.7639 40.015 13.2404C40.015 13.3289 39.9705 13.4174 39.9705 13.5059C39.886 13.9951 39.797 14.4819 39.7034 14.9664C39.9045 15.2776 40.0825 15.6022 40.2376 15.9401C40.2992 15.8936 40.3437 15.8346 40.3711 15.7631C40.4979 15.0727 40.6463 14.3941 40.8162 13.7272C42.1375 14.4509 43.2353 15.4246 44.1098 16.6482C44.1843 16.9842 44.1547 17.3087 44.0208 17.6219C42.2843 19.5988 40.133 20.8823 37.567 21.4724C38.3382 20.3961 39.0058 19.2602 39.5699 18.0645C39.721 18.7493 39.8842 19.428 40.0595 20.1004C40.4197 20.0372 40.6274 19.8307 40.6826 19.4807C40.4774 18.2045 40.1362 16.9653 39.6589 15.7631C39.0745 14.6664 38.4365 13.6042 37.7451 12.5765ZM33.4722 9.65548C34.217 10.1156 34.8995 10.6614 35.5196 11.293C34.2513 11.1594 32.9753 11.1299 31.6918 11.2045C32.275 10.6658 32.8685 10.1494 33.4722 9.65548ZM32.493 11.9569C33.8104 11.9352 35.1159 12.0384 36.4098 12.2667C37.5847 13.6434 38.5046 15.1777 39.1693 16.8695C38.478 18.6287 37.5582 20.2515 36.4098 21.7379C35.9146 21.874 35.4101 21.9626 34.8965 22.0035C33.5583 22.0791 32.223 22.0497 30.8907 21.9149C29.823 20.6614 28.9476 19.2894 28.2647 17.7989C28.091 17.4277 28.002 17.0441 27.9976 16.6482C28.6645 15.0267 29.5695 13.5514 30.7126 12.2224C31.4248 11.9126 31.9589 11.9657 32.493 11.9569ZM26.1727 13.9042C26.2694 13.9149 26.3288 13.9739 26.3508 14.0813C26.5187 15.015 26.7561 15.9297 27.0629 16.8253C26.6226 18.0258 26.3704 19.265 26.3063 20.5429C24.7583 19.7266 23.5862 18.5464 22.7901 17.0023C23.2087 16.3639 23.7132 15.7886 24.3034 15.2762C24.9325 14.817 25.5556 14.3597 26.1727 13.9042ZM27.508 18.153C28.1164 19.3771 28.8286 20.5425 29.6444 21.6494C28.9489 21.5577 28.2664 21.3953 27.597 21.1625C27.5718 21.4526 27.6014 21.7329 27.686 22.0035C31.2967 23.0829 34.9167 23.1125 38.5462 22.092C39.0317 21.9262 39.5065 21.7344 39.9705 21.5166C40.0098 22.9682 39.7873 24.3844 39.3029 25.7654C39.2178 25.8609 39.1436 25.9641 39.0803 26.0752C37.4055 26.1988 35.8476 25.8299 34.4069 24.9687C34.9252 24.439 35.4742 23.9079 36.0537 23.3754C36.1724 23.2763 36.2169 23.1583 36.1872 23.0214C35.7233 23.1331 35.2633 23.2659 34.8075 23.4197C34.405 23.7757 33.9896 24.1151 33.5612 24.4376C32.9885 24.0602 32.4544 23.6323 31.9589 23.1542C31.6245 23.121 31.2982 23.1652 30.9797 23.2869C31.5187 23.8937 32.1122 24.4396 32.7601 24.9245C31.3134 25.817 29.7408 26.2006 28.0421 26.0752C27.8209 25.7975 27.6577 25.4877 27.5525 25.1458C26.9204 22.8152 26.9056 20.4843 27.508 18.153Z" fill="url(#paint1_linear_896_29)"/>
</g>
<g opacity="0.869">
<path fill-rule="evenodd" clip-rule="evenodd" d="M33.1161 14.5238C34.3085 14.4304 35.1838 14.9025 35.7422 15.94C36.1779 17.3562 35.7477 18.4037 34.4514 19.0823C32.5376 19.5077 31.41 18.7701 31.0687 16.8694C31.0242 16.4711 31.0687 16.3826 31.1132 16.3826C31.9233 17.5921 32.9321 17.7396 33.8728 16.6482C34.0953 16.2498 34.0508 15.8073 33.9618 15.4975C33.7838 15.0549 33.4667 14.7705 33.1161 14.5238Z" fill="#FEFFFE"/>
<path fill-rule="evenodd" clip-rule="evenodd" d="M33.1161 14.5238C34.3085 14.4304 35.1838 14.9025 35.7422 15.94C36.1779 17.3562 35.7477 18.4037 34.4514 19.0823C32.5376 19.5077 31.41 18.7701 31.0687 16.8694C31.0242 16.4711 31.0687 16.3826 31.1132 16.3826C31.9233 17.5921 32.9321 17.7396 33.8728 16.6482C34.0953 16.2498 34.0508 15.8073 33.9618 15.4975C33.7838 15.0549 33.4667 14.7705 33.1161 14.5238Z" fill="url(#paint2_linear_896_29)"/>
</g>
<g opacity="0.785">
<path fill-rule="evenodd" clip-rule="evenodd" d="M32.3595 15.5419C33.1162 15.4091 33.2497 15.9402 33.0272 16.3828C32.7601 16.5598 32.4931 16.5598 32.226 16.3828C31.959 16.1172 32.0925 15.6746 32.3595 15.5419Z" fill="#FEFFFE"/>
<path fill-rule="evenodd" clip-rule="evenodd" d="M32.3595 15.5419C33.1162 15.4091 33.2497 15.9402 33.0272 16.3828C32.7601 16.5598 32.4931 16.5598 32.226 16.3828C31.959 16.1172 32.0925 15.6746 32.3595 15.5419Z" fill="url(#paint3_linear_896_29)"/>
</g>
<defs>
<linearGradient id="paint0_linear_896_29" x1="-5.58793e-07" y1="17" x2="150" y2="17" gradientUnits="userSpaceOnUse">
<stop stop-color="#FF500F"/>
<stop offset="1" stop-color="#FF8700"/>
</linearGradient>
<linearGradient id="paint1_linear_896_29" x1="22" y1="17" x2="44.9555" y2="17" gradientUnits="userSpaceOnUse">
<stop stop-color="#FF500F"/>
<stop offset="1" stop-color="#FF8700"/>
</linearGradient>
<linearGradient id="paint2_linear_896_29" x1="31.0503" y1="16.8556" x2="35.9066" y2="16.8556" gradientUnits="userSpaceOnUse">
<stop stop-color="#FF500F"/>
<stop offset="1" stop-color="#FF8700"/>
</linearGradient>
<linearGradient id="paint3_linear_896_29" x1="32.0804" y1="16.0183" x2="33.1245" y2="16.0183" gradientUnits="userSpaceOnUse">
<stop stop-color="#FF500F"/>
<stop offset="1" stop-color="#FF8700"/>
</linearGradient>
</defs>
</svg>
