<svg width="35" height="30" viewBox="0 0 35 30" fill="none" xmlns="http://www.w3.org/2000/svg">
<g opacity="0.836">
<path fill-rule="evenodd" clip-rule="evenodd" d="M34.1687 14.2061C34.3642 14.6622 34.2991 14.9881 34.2339 15.3791C33.8228 16.3386 33.2146 17.1857 32.4093 17.9205C31.1534 18.9831 29.8067 19.9172 28.369 20.7226C28.2435 22.8827 27.9177 25.0114 27.3915 27.1088C26.93 29.1112 25.6919 29.8281 23.6771 29.2593C21.4492 29.057 19.4073 28.3402 17.5515 27.1088C14.8857 28.8724 11.9751 29.5458 8.81936 29.129C8.43331 28.8309 8.15092 28.4617 7.97221 28.0212C7.16426 25.7887 6.79499 23.4862 6.8644 21.1136C4.25582 19.9614 2.23569 18.1367 0.804004 15.6397C0.527461 14.9683 0.570904 14.3166 0.934335 13.6848C2.53451 11.6714 4.46775 10.064 6.73406 8.86251C6.75977 6.51471 7.08559 4.21219 7.71155 1.95496C8.19281 0.74739 9.0834 0.0957346 10.3833 0C12.9508 0.269251 15.3184 1.09468 17.4864 2.47629C19.6738 1.14609 22.0416 0.320657 24.5894 0C26.1221 0.168853 27.0996 0.994282 27.5219 2.47629C27.9843 4.53647 28.2666 6.62177 28.369 8.73218C30.875 9.93599 32.7648 11.8475 34.1687 14.2061ZM9.99234 1.17298C12.2858 1.32023 14.4145 1.99359 16.3786 3.19311C13.0699 5.72021 10.5284 8.86988 8.75419 12.6421C8.34572 11.5829 8.19367 10.4968 8.29804 9.38383C8.99313 9.07973 9.68824 8.77561 10.3833 8.47151C10.6389 7.98173 10.943 7.52557 11.2956 7.10304C10.1737 7.28884 9.10935 7.65811 8.10254 8.21085C7.90828 6.05174 8.21238 3.96644 9.01486 1.95496C9.33787 1.67613 9.6637 1.41547 9.99234 1.17298ZM23.6771 8.21085C24.5104 8.40829 25.3358 8.62551 26.1534 8.86251C26.1947 8.46214 26.1513 8.07115 26.0231 7.68953C24.7806 7.23781 23.5208 6.84682 22.2435 6.51655C21.188 5.28669 20.0151 4.20061 18.7245 3.25827C20.6558 1.97014 22.7846 1.29675 25.1107 1.23814C25.7121 1.57905 26.1247 2.07865 26.3489 2.73695C26.9898 4.86393 27.3373 7.01439 27.0005 9.18833C27.0005 9.31867 26.9354 9.449 26.9354 9.57933C26.8117 10.2995 26.6814 11.0163 26.5444 11.7298C26.8387 12.188 27.0993 12.6659 27.3264 13.1634C27.4166 13.095 27.4817 13.0081 27.5219 12.9028C27.7076 11.8863 27.9248 10.8871 28.1735 9.90515C30.108 10.9707 31.7154 12.4043 32.9958 14.2061C33.1048 14.7007 33.0614 15.1785 32.8654 15.6397C30.3231 18.5505 27.1734 20.4403 23.4164 21.3091C24.5455 19.7244 25.523 18.0519 26.3489 16.2914C26.5701 17.2997 26.8089 18.299 27.0657 19.289C27.593 19.1961 27.8971 18.892 27.978 18.3767C27.6775 16.4976 27.1779 14.6729 26.4792 12.9028C25.6236 11.288 24.6895 9.72406 23.6771 8.21085ZM17.4212 3.90993C18.5117 4.58739 19.5109 5.3911 20.4188 6.32105C18.5619 6.12425 16.6937 6.08081 14.8146 6.19072C15.6684 5.39746 16.5373 4.6372 17.4212 3.90993ZM15.9876 7.29853C17.9163 7.26656 19.8278 7.41861 21.7221 7.75469C23.4424 9.7818 24.7892 12.0409 25.7624 14.5319C24.7502 17.1221 23.4035 19.5115 21.7221 21.7001C20.9971 21.9006 20.2585 22.0309 19.5065 22.0911C17.5472 22.2025 15.5923 22.1591 13.6416 21.9608C12.0783 20.115 10.7968 18.0949 9.79684 15.9004C9.54259 15.3538 9.41226 14.7889 9.40585 14.2061C10.3823 11.8185 11.7073 9.64633 13.3809 7.68953C14.4236 7.23337 15.2056 7.3115 15.9876 7.29853ZM6.73406 10.1658C6.87563 10.1815 6.96251 10.2683 6.99473 10.4265C7.24065 11.8012 7.5882 13.148 8.03737 14.4667C7.39277 16.2344 7.0235 18.0591 6.92956 19.9406C4.66317 18.7387 2.94714 17.0009 1.78149 14.7274C2.39446 13.7875 3.13301 12.9403 3.99711 12.1859C4.91825 11.5098 5.83057 10.8364 6.73406 10.1658ZM8.68903 16.4217C9.5798 18.2241 10.6225 19.94 11.817 21.5698C10.7986 21.4348 9.79942 21.1957 8.81936 20.853C8.78236 21.2801 8.82581 21.6927 8.94969 22.0911C14.236 23.6805 19.5361 23.724 24.8501 22.2214C25.5609 21.9773 26.256 21.6949 26.9354 21.3743C26.993 23.5116 26.6671 25.5969 25.9579 27.6302C25.8333 27.7708 25.7247 27.9228 25.6321 28.0863C23.1799 28.2683 20.8991 27.7252 18.7897 26.4572C19.5486 25.6772 20.3524 24.8952 21.2008 24.1112C21.3745 23.9653 21.4397 23.7915 21.3963 23.5899C20.717 23.7544 20.0436 23.9499 19.3762 24.1764C18.7869 24.7006 18.1787 25.2003 17.5515 25.6752C16.713 25.1195 15.931 24.4895 15.2056 23.7854C14.7161 23.7365 14.2383 23.8017 13.7719 23.9809C14.5611 24.8743 15.43 25.6781 16.3786 26.392C14.2605 27.7062 11.958 28.271 9.47101 28.0863C9.14706 27.6775 8.90813 27.2213 8.75419 26.7179C7.82873 23.2864 7.807 19.8544 8.68903 16.4217Z" fill="#FEFFFE"/>
<path fill-rule="evenodd" clip-rule="evenodd" d="M34.1687 14.2061C34.3642 14.6622 34.2991 14.9881 34.2339 15.3791C33.8228 16.3386 33.2146 17.1857 32.4093 17.9205C31.1534 18.9831 29.8067 19.9172 28.369 20.7226C28.2435 22.8827 27.9177 25.0114 27.3915 27.1088C26.93 29.1112 25.6919 29.8281 23.6771 29.2593C21.4492 29.057 19.4073 28.3402 17.5515 27.1088C14.8857 28.8724 11.9751 29.5458 8.81936 29.129C8.43331 28.8309 8.15092 28.4617 7.97221 28.0212C7.16426 25.7887 6.79499 23.4862 6.8644 21.1136C4.25582 19.9614 2.23569 18.1367 0.804004 15.6397C0.527461 14.9683 0.570904 14.3166 0.934335 13.6848C2.53451 11.6714 4.46775 10.064 6.73406 8.86251C6.75977 6.51471 7.08559 4.21219 7.71155 1.95496C8.19281 0.74739 9.0834 0.0957346 10.3833 0C12.9508 0.269251 15.3184 1.09468 17.4864 2.47629C19.6738 1.14609 22.0416 0.320657 24.5894 0C26.1221 0.168853 27.0996 0.994282 27.5219 2.47629C27.9843 4.53647 28.2666 6.62177 28.369 8.73218C30.875 9.93599 32.7648 11.8475 34.1687 14.2061ZM9.99234 1.17298C12.2858 1.32023 14.4145 1.99359 16.3786 3.19311C13.0699 5.72021 10.5284 8.86988 8.75419 12.6421C8.34572 11.5829 8.19367 10.4968 8.29804 9.38383C8.99313 9.07973 9.68824 8.77561 10.3833 8.47151C10.6389 7.98173 10.943 7.52557 11.2956 7.10304C10.1737 7.28884 9.10935 7.65811 8.10254 8.21085C7.90828 6.05174 8.21238 3.96644 9.01486 1.95496C9.33787 1.67613 9.6637 1.41547 9.99234 1.17298ZM23.6771 8.21085C24.5104 8.40829 25.3358 8.62551 26.1534 8.86251C26.1947 8.46214 26.1513 8.07115 26.0231 7.68953C24.7806 7.23781 23.5208 6.84682 22.2435 6.51655C21.188 5.28669 20.0151 4.20061 18.7245 3.25827C20.6558 1.97014 22.7846 1.29675 25.1107 1.23814C25.7121 1.57905 26.1247 2.07865 26.3489 2.73695C26.9898 4.86393 27.3373 7.01439 27.0005 9.18833C27.0005 9.31867 26.9354 9.449 26.9354 9.57933C26.8117 10.2995 26.6814 11.0163 26.5444 11.7298C26.8387 12.188 27.0993 12.6659 27.3264 13.1634C27.4166 13.095 27.4817 13.0081 27.5219 12.9028C27.7076 11.8863 27.9248 10.8871 28.1735 9.90515C30.108 10.9707 31.7154 12.4043 32.9958 14.2061C33.1048 14.7007 33.0614 15.1785 32.8654 15.6397C30.3231 18.5505 27.1734 20.4403 23.4164 21.3091C24.5455 19.7244 25.523 18.0519 26.3489 16.2914C26.5701 17.2997 26.8089 18.299 27.0657 19.289C27.593 19.1961 27.8971 18.892 27.978 18.3767C27.6775 16.4976 27.1779 14.6729 26.4792 12.9028C25.6236 11.288 24.6895 9.72406 23.6771 8.21085ZM17.4212 3.90993C18.5117 4.58739 19.5109 5.3911 20.4188 6.32105C18.5619 6.12425 16.6937 6.08081 14.8146 6.19072C15.6684 5.39746 16.5373 4.6372 17.4212 3.90993ZM15.9876 7.29853C17.9163 7.26656 19.8278 7.41861 21.7221 7.75469C23.4424 9.7818 24.7892 12.0409 25.7624 14.5319C24.7502 17.1221 23.4035 19.5115 21.7221 21.7001C20.9971 21.9006 20.2585 22.0309 19.5065 22.0911C17.5472 22.2025 15.5923 22.1591 13.6416 21.9608C12.0783 20.115 10.7968 18.0949 9.79684 15.9004C9.54259 15.3538 9.41226 14.7889 9.40585 14.2061C10.3823 11.8185 11.7073 9.64633 13.3809 7.68953C14.4236 7.23337 15.2056 7.3115 15.9876 7.29853ZM6.73406 10.1658C6.87563 10.1815 6.96251 10.2683 6.99473 10.4265C7.24065 11.8012 7.5882 13.148 8.03737 14.4667C7.39277 16.2344 7.0235 18.0591 6.92956 19.9406C4.66317 18.7387 2.94714 17.0009 1.78149 14.7274C2.39446 13.7875 3.13301 12.9403 3.99711 12.1859C4.91825 11.5098 5.83057 10.8364 6.73406 10.1658ZM8.68903 16.4217C9.5798 18.2241 10.6225 19.94 11.817 21.5698C10.7986 21.4348 9.79942 21.1957 8.81936 20.853C8.78236 21.2801 8.82581 21.6927 8.94969 22.0911C14.236 23.6805 19.5361 23.724 24.8501 22.2214C25.5609 21.9773 26.256 21.6949 26.9354 21.3743C26.993 23.5116 26.6671 25.5969 25.9579 27.6302C25.8333 27.7708 25.7247 27.9228 25.6321 28.0863C23.1799 28.2683 20.8991 27.7252 18.7897 26.4572C19.5486 25.6772 20.3524 24.8952 21.2008 24.1112C21.3745 23.9653 21.4397 23.7915 21.3963 23.5899C20.717 23.7544 20.0436 23.9499 19.3762 24.1764C18.7869 24.7006 18.1787 25.2003 17.5515 25.6752C16.713 25.1195 15.931 24.4895 15.2056 23.7854C14.7161 23.7365 14.2383 23.8017 13.7719 23.9809C14.5611 24.8743 15.43 25.6781 16.3786 26.392C14.2605 27.7062 11.958 28.271 9.47101 28.0863C9.14706 27.6775 8.90813 27.2213 8.75419 26.7179C7.82873 23.2864 7.807 19.8544 8.68903 16.4217Z" fill="url(#paint0_linear_896_30)"/>
</g>
<g opacity="0.869">
<path fill-rule="evenodd" clip-rule="evenodd" d="M16.8999 11.0781C18.6456 10.9406 19.9272 11.6357 20.7446 13.1634C21.3826 15.2486 20.7527 16.7909 18.8548 17.7902C16.0528 18.4164 14.4019 17.3304 13.9022 14.5319C13.8371 13.9454 13.9022 13.8151 13.9674 13.8151C15.1534 15.5959 16.6305 15.8131 18.0077 14.2061C18.3335 13.6196 18.2683 12.9679 18.138 12.5118C17.8773 11.8601 17.4131 11.4414 16.8999 11.0781Z" fill="#FEFFFE"/>
<path fill-rule="evenodd" clip-rule="evenodd" d="M16.8999 11.0781C18.6456 10.9406 19.9272 11.6357 20.7446 13.1634C21.3826 15.2486 20.7527 16.7909 18.8548 17.7902C16.0528 18.4164 14.4019 17.3304 13.9022 14.5319C13.8371 13.9454 13.9022 13.8151 13.9674 13.8151C15.1534 15.5959 16.6305 15.8131 18.0077 14.2061C18.3335 13.6196 18.2683 12.9679 18.138 12.5118C17.8773 11.8601 17.4131 11.4414 16.8999 11.0781Z" fill="url(#paint1_linear_896_30)"/>
</g>
<g opacity="0.785">
<path fill-rule="evenodd" clip-rule="evenodd" d="M15.792 12.5769C16.8998 12.3814 17.0954 13.1634 16.7695 13.8151C16.3785 14.0757 15.9875 14.0757 15.5966 13.8151C15.2056 13.4241 15.401 12.7724 15.792 12.5769Z" fill="#FEFFFE"/>
<path fill-rule="evenodd" clip-rule="evenodd" d="M15.792 12.5769C16.8998 12.3814 17.0954 13.1634 16.7695 13.8151C16.3785 14.0757 15.9875 14.0757 15.5966 13.8151C15.2056 13.4241 15.401 12.7724 15.792 12.5769Z" fill="url(#paint2_linear_896_30)"/>
</g>
<defs>
<linearGradient id="paint0_linear_896_30" x1="0.624756" y1="14.724" x2="34.2339" y2="14.724" gradientUnits="userSpaceOnUse">
<stop stop-color="#FF500F"/>
<stop offset="1" stop-color="#FF8700"/>
</linearGradient>
<linearGradient id="paint1_linear_896_30" x1="13.8752" y1="14.5115" x2="20.9854" y2="14.5115" gradientUnits="userSpaceOnUse">
<stop stop-color="#FF500F"/>
<stop offset="1" stop-color="#FF8700"/>
</linearGradient>
<linearGradient id="paint2_linear_896_30" x1="15.3834" y1="13.2785" x2="16.912" y2="13.2785" gradientUnits="userSpaceOnUse">
<stop stop-color="#FF500F"/>
<stop offset="1" stop-color="#FF8700"/>
</linearGradient>
</defs>
</svg>
