<svg width="17" height="16" viewBox="0 0 17 16" fill="none" xmlns="http://www.w3.org/2000/svg">
<path d="M9.94545 9.35838C9.75819 9.54615 9.53238 9.69676 9.28147 9.80122C9.03056 9.90568 8.75971 9.96184 8.48506 9.96637C8.21042 9.9709 7.93761 9.92369 7.68292 9.82757C7.42822 9.73145 7.19686 9.58838 7.00262 9.40689C6.80839 9.22541 6.65527 9.00923 6.55239 8.77125C6.44952 8.53327 6.399 8.27837 6.40384 8.02175C6.40869 7.76513 6.4688 7.51205 6.5806 7.27761C6.69239 7.04317 6.85358 6.83217 7.05455 6.6572M12.55 11.792C11.3845 12.6221 9.9653 13.082 8.5 13.1043C3.72727 13.1043 1 8.00779 1 8.00779C1.84811 6.531 3.02441 5.24075 4.45 4.2236L12.55 11.792ZM7.06818 3.06414C7.5375 2.96149 8.018 2.91018 8.5 2.91124C13.2727 2.91124 16 8.00779 16 8.00779C15.5861 8.73125 15.0925 9.41236 14.5273 10.04L7.06818 3.06414Z" stroke="#A6A4AE" stroke-width="1.3" stroke-linecap="round" stroke-linejoin="round"/>
<path d="M1 1L16 15.0156" stroke="#A6A4AE" stroke-width="1.3" stroke-linecap="round" stroke-linejoin="round"/>
</svg>
