<svg width="148" height="21" viewBox="0 0 148 21" fill="none" xmlns="http://www.w3.org/2000/svg">
<path d="M15.016 9.976H18.46V17.788C17.452 18.5907 16.276 19.2067 14.932 19.636C13.588 20.0653 12.2067 20.28 10.788 20.28C8.79067 20.28 6.98933 19.8507 5.384 18.992C3.77867 18.1147 2.51867 16.9107 1.604 15.38C0.689333 13.8493 0.232 12.1227 0.232 10.2C0.232 8.27733 0.689333 6.55067 1.604 5.02C2.51867 3.48933 3.77867 2.29467 5.384 1.436C7.008 0.558666 8.828 0.119999 10.844 0.119999C12.4867 0.119999 13.98 0.390665 15.324 0.931998C16.668 1.47333 17.7973 2.26667 18.712 3.312L16.416 5.552C14.9227 4.05867 13.1213 3.312 11.012 3.312C9.63067 3.312 8.39867 3.60133 7.316 4.18C6.252 4.75867 5.412 5.57067 4.796 6.616C4.19867 7.66133 3.9 8.856 3.9 10.2C3.9 11.5067 4.19867 12.6827 4.796 13.728C5.412 14.7733 6.252 15.5947 7.316 16.192C8.39867 16.7893 9.62133 17.088 10.984 17.088C12.5147 17.088 13.8587 16.752 15.016 16.08V9.976ZM32.4169 20.28C30.4196 20.28 28.6182 19.8507 27.0129 18.992C25.4076 18.1147 24.1476 16.9107 23.2329 15.38C22.3182 13.8307 21.8609 12.104 21.8609 10.2C21.8609 8.296 22.3182 6.57867 23.2329 5.048C24.1476 3.49867 25.4076 2.29467 27.0129 1.436C28.6182 0.558666 30.4196 0.119999 32.4169 0.119999C34.4142 0.119999 36.2156 0.558666 37.8209 1.436C39.4262 2.29467 40.6862 3.48933 41.6009 5.02C42.5156 6.55067 42.9729 8.27733 42.9729 10.2C42.9729 12.1227 42.5156 13.8493 41.6009 15.38C40.6862 16.9107 39.4262 18.1147 37.8209 18.992C36.2156 19.8507 34.4142 20.28 32.4169 20.28ZM32.4169 17.088C33.7236 17.088 34.8996 16.7987 35.9449 16.22C36.9902 15.6227 37.8116 14.8013 38.4089 13.756C39.0062 12.692 39.3049 11.5067 39.3049 10.2C39.3049 8.89333 39.0062 7.71733 38.4089 6.672C37.8116 5.608 36.9902 4.78667 35.9449 4.208C34.8996 3.61067 33.7236 3.312 32.4169 3.312C31.1102 3.312 29.9342 3.61067 28.8889 4.208C27.8436 4.78667 27.0222 5.608 26.4249 6.672C25.8276 7.71733 25.5289 8.89333 25.5289 10.2C25.5289 11.5067 25.8276 12.692 26.4249 13.756C27.0222 14.8013 27.8436 15.6227 28.8889 16.22C29.9342 16.7987 31.1102 17.088 32.4169 17.088ZM55.9872 20.28C53.9899 20.28 52.1886 19.8507 50.5832 18.992C48.9779 18.1147 47.7179 16.9107 46.8032 15.38C45.8886 13.8307 45.4312 12.104 45.4312 10.2C45.4312 8.296 45.8886 6.57867 46.8032 5.048C47.7179 3.49867 48.9779 2.29467 50.5832 1.436C52.1886 0.558666 53.9899 0.119999 55.9872 0.119999C57.9846 0.119999 59.7859 0.558666 61.3912 1.436C62.9966 2.29467 64.2566 3.48933 65.1712 5.02C66.0859 6.55067 66.5432 8.27733 66.5432 10.2C66.5432 12.1227 66.0859 13.8493 65.1712 15.38C64.2566 16.9107 62.9966 18.1147 61.3912 18.992C59.7859 19.8507 57.9846 20.28 55.9872 20.28ZM55.9872 17.088C57.2939 17.088 58.4699 16.7987 59.5152 16.22C60.5606 15.6227 61.3819 14.8013 61.9792 13.756C62.5766 12.692 62.8752 11.5067 62.8752 10.2C62.8752 8.89333 62.5766 7.71733 61.9792 6.672C61.3819 5.608 60.5606 4.78667 59.5152 4.208C58.4699 3.61067 57.2939 3.312 55.9872 3.312C54.6806 3.312 53.5046 3.61067 52.4592 4.208C51.4139 4.78667 50.5926 5.608 49.9952 6.672C49.3979 7.71733 49.0992 8.89333 49.0992 10.2C49.0992 11.5067 49.3979 12.692 49.9952 13.756C50.5926 14.8013 51.4139 15.6227 52.4592 16.22C53.5046 16.7987 54.6806 17.088 55.9872 17.088ZM70.4015 0.399999H78.9695C81.0602 0.399999 82.9175 0.810666 84.5415 1.632C86.1655 2.43467 87.4255 3.58267 88.3215 5.076C89.2175 6.55067 89.6655 8.25867 89.6655 10.2C89.6655 12.1413 89.2175 13.8587 88.3215 15.352C87.4255 16.8267 86.1655 17.9747 84.5415 18.796C82.9175 19.5987 81.0602 20 78.9695 20H70.4015V0.399999ZM78.8015 16.92C80.2389 16.92 81.4989 16.6493 82.5815 16.108C83.6829 15.548 84.5229 14.764 85.1015 13.756C85.6989 12.7293 85.9975 11.544 85.9975 10.2C85.9975 8.856 85.6989 7.68 85.1015 6.672C84.5229 5.64533 83.6829 4.86133 82.5815 4.32C81.4989 3.76 80.2389 3.48 78.8015 3.48H74.0415V16.92H78.8015Z" fill="#353535"/>
<path d="M15.016 9.976H18.46V17.788C17.452 18.5907 16.276 19.2067 14.932 19.636C13.588 20.0653 12.2067 20.28 10.788 20.28C8.79067 20.28 6.98933 19.8507 5.384 18.992C3.77867 18.1147 2.51867 16.9107 1.604 15.38C0.689333 13.8493 0.232 12.1227 0.232 10.2C0.232 8.27733 0.689333 6.55067 1.604 5.02C2.51867 3.48933 3.77867 2.29467 5.384 1.436C7.008 0.558666 8.828 0.119999 10.844 0.119999C12.4867 0.119999 13.98 0.390665 15.324 0.931998C16.668 1.47333 17.7973 2.26667 18.712 3.312L16.416 5.552C14.9227 4.05867 13.1213 3.312 11.012 3.312C9.63067 3.312 8.39867 3.60133 7.316 4.18C6.252 4.75867 5.412 5.57067 4.796 6.616C4.19867 7.66133 3.9 8.856 3.9 10.2C3.9 11.5067 4.19867 12.6827 4.796 13.728C5.412 14.7733 6.252 15.5947 7.316 16.192C8.39867 16.7893 9.62133 17.088 10.984 17.088C12.5147 17.088 13.8587 16.752 15.016 16.08V9.976ZM32.4169 20.28C30.4196 20.28 28.6182 19.8507 27.0129 18.992C25.4076 18.1147 24.1476 16.9107 23.2329 15.38C22.3182 13.8307 21.8609 12.104 21.8609 10.2C21.8609 8.296 22.3182 6.57867 23.2329 5.048C24.1476 3.49867 25.4076 2.29467 27.0129 1.436C28.6182 0.558666 30.4196 0.119999 32.4169 0.119999C34.4142 0.119999 36.2156 0.558666 37.8209 1.436C39.4262 2.29467 40.6862 3.48933 41.6009 5.02C42.5156 6.55067 42.9729 8.27733 42.9729 10.2C42.9729 12.1227 42.5156 13.8493 41.6009 15.38C40.6862 16.9107 39.4262 18.1147 37.8209 18.992C36.2156 19.8507 34.4142 20.28 32.4169 20.28ZM32.4169 17.088C33.7236 17.088 34.8996 16.7987 35.9449 16.22C36.9902 15.6227 37.8116 14.8013 38.4089 13.756C39.0062 12.692 39.3049 11.5067 39.3049 10.2C39.3049 8.89333 39.0062 7.71733 38.4089 6.672C37.8116 5.608 36.9902 4.78667 35.9449 4.208C34.8996 3.61067 33.7236 3.312 32.4169 3.312C31.1102 3.312 29.9342 3.61067 28.8889 4.208C27.8436 4.78667 27.0222 5.608 26.4249 6.672C25.8276 7.71733 25.5289 8.89333 25.5289 10.2C25.5289 11.5067 25.8276 12.692 26.4249 13.756C27.0222 14.8013 27.8436 15.6227 28.8889 16.22C29.9342 16.7987 31.1102 17.088 32.4169 17.088ZM55.9872 20.28C53.9899 20.28 52.1886 19.8507 50.5832 18.992C48.9779 18.1147 47.7179 16.9107 46.8032 15.38C45.8886 13.8307 45.4312 12.104 45.4312 10.2C45.4312 8.296 45.8886 6.57867 46.8032 5.048C47.7179 3.49867 48.9779 2.29467 50.5832 1.436C52.1886 0.558666 53.9899 0.119999 55.9872 0.119999C57.9846 0.119999 59.7859 0.558666 61.3912 1.436C62.9966 2.29467 64.2566 3.48933 65.1712 5.02C66.0859 6.55067 66.5432 8.27733 66.5432 10.2C66.5432 12.1227 66.0859 13.8493 65.1712 15.38C64.2566 16.9107 62.9966 18.1147 61.3912 18.992C59.7859 19.8507 57.9846 20.28 55.9872 20.28ZM55.9872 17.088C57.2939 17.088 58.4699 16.7987 59.5152 16.22C60.5606 15.6227 61.3819 14.8013 61.9792 13.756C62.5766 12.692 62.8752 11.5067 62.8752 10.2C62.8752 8.89333 62.5766 7.71733 61.9792 6.672C61.3819 5.608 60.5606 4.78667 59.5152 4.208C58.4699 3.61067 57.2939 3.312 55.9872 3.312C54.6806 3.312 53.5046 3.61067 52.4592 4.208C51.4139 4.78667 50.5926 5.608 49.9952 6.672C49.3979 7.71733 49.0992 8.89333 49.0992 10.2C49.0992 11.5067 49.3979 12.692 49.9952 13.756C50.5926 14.8013 51.4139 15.6227 52.4592 16.22C53.5046 16.7987 54.6806 17.088 55.9872 17.088ZM70.4015 0.399999H78.9695C81.0602 0.399999 82.9175 0.810666 84.5415 1.632C86.1655 2.43467 87.4255 3.58267 88.3215 5.076C89.2175 6.55067 89.6655 8.25867 89.6655 10.2C89.6655 12.1413 89.2175 13.8587 88.3215 15.352C87.4255 16.8267 86.1655 17.9747 84.5415 18.796C82.9175 19.5987 81.0602 20 78.9695 20H70.4015V0.399999ZM78.8015 16.92C80.2389 16.92 81.4989 16.6493 82.5815 16.108C83.6829 15.548 84.5229 14.764 85.1015 13.756C85.6989 12.7293 85.9975 11.544 85.9975 10.2C85.9975 8.856 85.6989 7.68 85.1015 6.672C84.5229 5.64533 83.6829 4.86133 82.5815 4.32C81.4989 3.76 80.2389 3.48 78.8015 3.48H74.0415V16.92H78.8015Z" fill="url(#paint0_linear_611_94)"/>
<path d="M108.794 15.016V20H92.4983V0.399999H108.43V5.384H98.9943V7.68H107.282V12.44H98.9943V15.016H108.794ZM122.849 12.888V20H116.241V12.804L108.849 0.399999H115.821L119.825 7.176L123.857 0.399999H130.241L122.849 12.888ZM147.376 15.016V20H131.08V0.399999H147.012V5.384H137.576V7.68H145.864V12.44H137.576V15.016H147.376Z" fill="#353535"/>
<defs>
<linearGradient id="paint0_linear_611_94" x1="-1" y1="10" x2="149" y2="10" gradientUnits="userSpaceOnUse">
<stop stop-color="#FF500F"/>
<stop offset="1" stop-color="#FF8700"/>
</linearGradient>
</defs>
</svg>
